<?xml version="1.0" encoding="utf-8"?>
<!-- Generator: Adobe Illustrator 25.0.1, SVG Export Plug-In . SVG Version: 6.00 Build 0)  -->
<svg version="1.1" id="Layer_1" xmlns="http://www.w3.org/2000/svg" xmlns:xlink="http://www.w3.org/1999/xlink" x="0px" y="0px"
	 viewBox="0 0 159.7 85" style="enable-background:new 0 0 159.7 85;" xml:space="preserve">
<style type="text/css">
	.st0{fill-rule:evenodd;clip-rule:evenodd;fill:#FFFFFF;}
	.st1{fill:none;stroke:#FFFFFF;stroke-width:0.85;stroke-miterlimit:10;}
	.st2{fill:#FFFFFF;}
	.st3{font-family:'ArialMT';}
	.st4{font-size:5.0762px;}
	.st5{clip-path:url(#SVGID_2_);fill:#FFFFFF;}
	.st6{clip-path:url(#SVGID_4_);fill:url(#SVGID_5_);}
	.st7{fill:#0E5640;}
	.st8{fill:#ED1C24;}
	.st9{fill:none;stroke:#FFFFFF;stroke-width:0.8583;stroke-miterlimit:10;}
</style>
<g>
	<polygon class="st0" points="139.9,17.9 126.5,37.7 120,29.2 120,38.3 126.5,45.3 139.9,25.7 139.9,17.9 	"/>
	<g>
		<path class="st0" d="M123,46.6c0,0,0.1,1.4,0.1,2.9c0,1.4-0.1,3.2-0.1,3.2h1.5c0,0-0.1-2-0.1-3.2c0-1.2,0.1-2.9,0.1-2.9H123
			L123,46.6z"/>
		<path class="st0" d="M124.3,49.6c0,0,0.9-1,1.3-1.5c0.4-0.5,1.1-1.4,1.1-1.4h0.9c0,0-1.7,2-2.1,2.3c-0.5,0.4-0.9,0.7-0.9,0.7
			L124.3,49.6L124.3,49.6z"/>
		<polygon class="st0" points="125.4,49.2 127.9,52.7 126.3,52.7 124.4,49.9 124.3,49.6 125.4,49.2 		"/>
	</g>
	<path class="st0" d="M114.1,46.4h1.3c0,0,0,1.5,0,2.4c0,0.9-0.3,3.3,1.6,3.3c1.5,0,1.7-1.2,1.7-2.4c0-1,0-3.3,0-3.3h0.8
		c0,0,0,1.5,0,2.9c-0.1,1.4,0,3.3-2.8,3.3c-2.8,0-2.6-2.1-2.6-2.5C114.1,49.6,114.1,46.4,114.1,46.4L114.1,46.4z"/>
	<g>
		<path class="st0" d="M131.4,52.5c0,0,0.3-0.9,0.8-2.2c0.5-1.3,0.8-2.2,0.8-2.2s0.7,1.5,1,2.4c0.3,0.9,0.7,1.9,0.7,1.9h1.5
			c0,0-0.7-1.6-1.3-3.1c-0.4-0.8-1.1-3-1.1-3h-0.8c0,0-1.4,3.3-1.7,4.2c-0.4,0.8-0.8,1.9-0.8,1.9H131.4L131.4,52.5z"/>
		<polygon class="st0" points="131.9,50.7 134.5,50.7 134.5,50.2 131.9,50.2 131.9,50.7 		"/>
	</g>
	<path class="st0" d="M142.3,46.7l-0.2,0.9l-0.2-0.1c0,0-0.3-0.7-1-0.7c-0.8,0-0.9,0.5-0.9,0.8c0,0.3,0.3,0.7,1,1.1
		c0.8,0.3,1.6,0.7,1.6,1.9c0,1.1-0.9,1.9-2.3,1.9c-1.2,0-1.5-0.4-1.5-0.4l0.3-1h0.1c0,0,0.2,0.8,1.1,0.9c0.9,0,1.2-0.4,1.2-1
		c0-0.6-0.8-0.9-1.5-1.2c-0.7-0.4-1.2-0.9-1.2-1.7c0-0.7,0.6-1.9,2.1-1.9C141.8,46.3,142.3,46.7,142.3,46.7L142.3,46.7z"/>
	<rect x="105.2" y="7.3" class="st1" width="46.3" height="63.2"/>
	<path class="st2" d="M112,61.8c-0.1,0-0.2,0-0.2,0c0,0-0.1,0-0.2,0c0.2-1,0.4-2.1,0.5-3.4c0.1,0,0.1,0,0.2,0c0.1,0,0.1,0,0.2,0
		c0.4,0.9,0.8,1.7,1.1,2.3c0.5-1,0.9-1.7,1.1-2.3c0.1,0,0.2,0,0.2,0c0,0,0.1,0,0.2,0c0.1,1.2,0.3,2.3,0.5,3.4c-0.2,0-0.3,0-0.4,0
		c-0.1,0-0.3,0-0.4,0c0-0.8-0.1-1.5-0.2-2.2c-0.6,1.2-0.9,2-1,2.3c0,0-0.1,0-0.1,0c0,0-0.1,0-0.1,0c-0.1-0.3-0.5-1.1-1.1-2.2
		C112.1,60.5,112,61.2,112,61.8z"/>
	<path class="st2" d="M115.7,61.8c0.5-1,1-2.1,1.4-3.4c0.1,0,0.1,0,0.2,0c0,0,0.1,0,0.2,0c0.5,1.3,0.9,2.5,1.4,3.4
		c-0.2,0-0.4,0-0.4,0c-0.1,0-0.2,0-0.4,0c-0.1-0.3-0.2-0.6-0.3-1v0c-0.2,0-0.4,0-0.6,0c-0.1,0-0.3,0-0.6,0v0c-0.1,0.3-0.2,0.6-0.3,1
		c-0.1,0-0.2,0-0.3,0C115.9,61.8,115.8,61.8,115.7,61.8z M116.7,60.4c0.2,0,0.3,0,0.5,0c0.2,0,0.3,0,0.4,0l-0.4-1.1L116.7,60.4z"/>
	<path class="st2" d="M119.4,61.8c0-0.4,0-1.1,0-2.1c0-0.4,0-0.8,0-1.3c0.1,0,0.2,0,0.2,0c0.1,0,0.1,0,0.2,0
		c0.4,0.5,1.1,1.2,2.1,2.3l0-0.9c0-0.3,0-0.7,0-1.4c0.1,0,0.2,0,0.2,0c0,0,0.1,0,0.2,0c0,0.6,0,1.3,0,1.9V61c0,0.2,0,0.5,0,0.8
		c-0.1,0-0.2,0-0.2,0c0,0-0.1,0-0.2,0c-0.4-0.5-1.1-1.3-2.1-2.3h0v0.9c0,0.6,0,1.1,0,1.5c-0.1,0-0.2,0-0.2,0
		C119.5,61.8,119.4,61.8,119.4,61.8z"/>
	<path class="st2" d="M122.8,61.8c0.5-1,1-2.1,1.4-3.4c0.1,0,0.1,0,0.2,0c0,0,0.1,0,0.2,0c0.5,1.3,0.9,2.5,1.4,3.4
		c-0.2,0-0.4,0-0.4,0c-0.1,0-0.2,0-0.4,0c-0.1-0.3-0.2-0.6-0.3-1v0c-0.2,0-0.4,0-0.6,0c-0.1,0-0.3,0-0.6,0v0c-0.1,0.3-0.2,0.6-0.3,1
		c-0.1,0-0.2,0-0.3,0C123,61.8,122.9,61.8,122.8,61.8z M123.7,60.4c0.2,0,0.3,0,0.5,0c0.2,0,0.3,0,0.4,0l-0.4-1.1L123.7,60.4z"/>
	<path class="st2" d="M128.6,61.5c0-0.1,0-0.3,0-0.5c0-0.3,0-0.5,0-0.7c0.1,0,0.3,0,0.4,0c0.1,0,0.2,0,0.4,0c0,0.2,0,0.4,0,0.7v0.3
		c0,0.1,0,0.3,0,0.4c-0.5,0.1-0.9,0.2-1.3,0.2c-0.6,0-1.1-0.1-1.4-0.4c-0.4-0.3-0.5-0.7-0.5-1.2c0-0.6,0.2-1,0.5-1.3
		c0.4-0.3,0.8-0.5,1.4-0.5c0.2,0,0.4,0,0.6,0.1c0.2,0,0.4,0.1,0.6,0.2c-0.1,0.2-0.1,0.3-0.1,0.5h-0.1c-0.1-0.1-0.2-0.2-0.4-0.3
		c-0.2-0.1-0.3-0.1-0.5-0.1c-0.4,0-0.6,0.1-0.9,0.4c-0.2,0.3-0.3,0.6-0.3,1.1c0,0.5,0.1,0.8,0.3,1c0.2,0.2,0.5,0.4,0.9,0.4
		C128.3,61.5,128.5,61.5,128.6,61.5z"/>
	<path class="st2" d="M130.1,61.8c0-0.2,0-0.6,0-1.2v-1.1c0-0.5,0-0.8,0-1.2c0.2,0,0.5,0,1,0c0.5,0,0.8,0,0.9,0c0,0.1,0,0.2,0,0.2
		c0,0,0,0.1,0,0.2c-0.5,0-0.8,0-1.1,0v1.1h0.3c0.3,0,0.5,0,0.8,0c0,0.1,0,0.2,0,0.2c0,0,0,0.1,0,0.2c-0.2,0-0.4,0-0.8,0h-0.3v1.2
		c0.1,0,0.1,0,0.2,0c0.3,0,0.6,0,0.9,0c0,0.1,0,0.2,0,0.2c0,0,0,0.1,0,0.2c-0.5,0-0.8,0-1.1,0C130.7,61.8,130.4,61.8,130.1,61.8z"/>
	<path class="st2" d="M132.8,61.8c-0.1,0-0.2,0-0.2,0c0,0-0.1,0-0.2,0c0.2-1,0.4-2.1,0.5-3.4c0.1,0,0.1,0,0.2,0c0.1,0,0.1,0,0.2,0
		c0.4,0.9,0.8,1.7,1.1,2.3c0.5-1,0.9-1.7,1.1-2.3c0.1,0,0.2,0,0.2,0c0,0,0.1,0,0.2,0c0.1,1.2,0.3,2.3,0.5,3.4c-0.2,0-0.3,0-0.4,0
		c-0.1,0-0.3,0-0.4,0c0-0.8-0.1-1.5-0.2-2.2c-0.6,1.2-0.9,2-1,2.3c0,0-0.1,0-0.1,0c0,0-0.1,0-0.1,0c-0.1-0.3-0.5-1.1-1.1-2.2
		C132.9,60.5,132.8,61.2,132.8,61.8z"/>
	<path class="st2" d="M136.9,61.8c0-0.2,0-0.6,0-1.2v-1.1c0-0.5,0-0.8,0-1.2c0.2,0,0.5,0,1,0c0.5,0,0.8,0,0.9,0c0,0.1,0,0.2,0,0.2
		c0,0,0,0.1,0,0.2c-0.5,0-0.8,0-1.1,0v1.1h0.3c0.3,0,0.5,0,0.8,0c0,0.1,0,0.2,0,0.2c0,0,0,0.1,0,0.2c-0.2,0-0.4,0-0.8,0h-0.3v1.2
		c0.1,0,0.1,0,0.2,0c0.3,0,0.6,0,0.9,0c0,0.1,0,0.2,0,0.2c0,0,0,0.1,0,0.2c-0.5,0-0.8,0-1.1,0C137.4,61.8,137.2,61.8,136.9,61.8z"/>
	<path class="st2" d="M139.4,61.8c0-0.4,0-1.1,0-2.1c0-0.4,0-0.8,0-1.3c0.1,0,0.2,0,0.2,0c0.1,0,0.1,0,0.2,0
		c0.4,0.5,1.1,1.2,2.1,2.3l0-0.9c0-0.3,0-0.7,0-1.4c0.1,0,0.2,0,0.2,0c0,0,0.1,0,0.2,0c0,0.6,0,1.3,0,1.9V61c0,0.2,0,0.5,0,0.8
		c-0.1,0-0.2,0-0.2,0c0,0-0.1,0-0.2,0c-0.4-0.5-1.1-1.3-2.1-2.3h0v0.9c0,0.6,0,1.1,0,1.5c-0.1,0-0.2,0-0.2,0
		C139.5,61.8,139.4,61.8,139.4,61.8z"/>
	<path class="st2" d="M142.8,58.8c0-0.1,0-0.2,0-0.2c0,0,0-0.1,0-0.2c0.4,0,0.9,0,1.3,0c0.4,0,0.8,0,1.3,0c0,0.1,0,0.1,0,0.2
		c0,0.1,0,0.2,0,0.2c-0.3,0-0.6,0-0.9,0V59c0,1.1,0,2,0,2.8c-0.2,0-0.3,0-0.4,0c-0.1,0-0.2,0-0.4,0c0-0.7,0-1.7,0-2.8v-0.2
		C143.4,58.8,143.1,58.8,142.8,58.8z"/>
	<path class="st2" d="M118.7,67.3c0.1-0.2,0.1-0.4,0.1-0.6h0.1c0.1,0.2,0.1,0.3,0.2,0.4c0.1,0.1,0.2,0.1,0.4,0.1
		c0.2,0,0.3,0,0.4-0.1c0.1-0.1,0.2-0.2,0.2-0.3c0-0.1-0.1-0.3-0.2-0.4c-0.1-0.1-0.3-0.2-0.6-0.3c-0.2-0.1-0.4-0.3-0.5-0.4
		c-0.1-0.1-0.1-0.3-0.1-0.5c0-0.3,0.1-0.6,0.3-0.8c0.2-0.2,0.5-0.3,0.8-0.3c0.1,0,0.3,0,0.4,0.1c0.1,0,0.3,0.1,0.4,0.2
		c-0.1,0.1-0.1,0.3-0.2,0.5h-0.1c-0.1-0.2-0.1-0.3-0.2-0.3c-0.1-0.1-0.2-0.1-0.3-0.1c-0.1,0-0.3,0-0.4,0.1c-0.1,0.1-0.1,0.2-0.1,0.3
		c0,0.1,0.1,0.3,0.2,0.4c0.1,0.1,0.3,0.2,0.6,0.3c0.3,0.1,0.4,0.3,0.5,0.4c0.1,0.2,0.2,0.3,0.2,0.5c0,0.3-0.1,0.6-0.3,0.8
		c-0.2,0.2-0.5,0.3-0.9,0.3c-0.1,0-0.3,0-0.4,0C119,67.5,118.9,67.4,118.7,67.3z"/>
	<path class="st2" d="M121,64.1c0.2,0,0.4,0,0.5,0c0.1,0,0.2,0,0.5,0c0.1,0.4,0.4,0.9,0.7,1.5c0.3-0.6,0.5-1.1,0.7-1.5
		c0.1,0,0.2,0,0.3,0c0,0,0.1,0,0.3,0c-0.2,0.3-0.3,0.6-0.5,1c-0.2,0.4-0.4,0.7-0.5,1v0.6c0,0.3,0,0.6,0,0.8c-0.2,0-0.3,0-0.4,0
		c-0.1,0-0.2,0-0.4,0c0-0.1,0-0.4,0-0.8v-0.6c-0.1-0.2-0.3-0.5-0.5-0.9C121.4,64.7,121.2,64.4,121,64.1z"/>
	<path class="st2" d="M124.2,67.3c0.1-0.2,0.1-0.4,0.1-0.6h0.1c0.1,0.2,0.1,0.3,0.2,0.4c0.1,0.1,0.2,0.1,0.4,0.1
		c0.2,0,0.3,0,0.4-0.1c0.1-0.1,0.2-0.2,0.2-0.3c0-0.1-0.1-0.3-0.2-0.4c-0.1-0.1-0.3-0.2-0.6-0.3c-0.2-0.1-0.4-0.3-0.5-0.4
		c-0.1-0.1-0.1-0.3-0.1-0.5c0-0.3,0.1-0.6,0.3-0.8c0.2-0.2,0.5-0.3,0.8-0.3c0.1,0,0.3,0,0.4,0.1c0.1,0,0.3,0.1,0.4,0.2
		c-0.1,0.1-0.1,0.3-0.2,0.5h-0.1c-0.1-0.2-0.1-0.3-0.2-0.3c-0.1-0.1-0.2-0.1-0.3-0.1c-0.1,0-0.3,0-0.4,0.1c-0.1,0.1-0.1,0.2-0.1,0.3
		c0,0.1,0.1,0.3,0.2,0.4c0.1,0.1,0.3,0.2,0.6,0.3c0.3,0.1,0.4,0.3,0.5,0.4c0.1,0.2,0.2,0.3,0.2,0.5c0,0.3-0.1,0.6-0.3,0.8
		c-0.2,0.2-0.5,0.3-0.9,0.3c-0.1,0-0.3,0-0.4,0C124.5,67.5,124.3,67.4,124.2,67.3z"/>
	<path class="st2" d="M126.5,64.5c0-0.1,0-0.2,0-0.2c0,0,0-0.1,0-0.2c0.4,0,0.9,0,1.3,0c0.4,0,0.8,0,1.3,0c0,0.1,0,0.1,0,0.2
		c0,0.1,0,0.2,0,0.2c-0.3,0-0.6,0-0.9,0v0.2c0,1.1,0,2,0,2.8c-0.2,0-0.3,0-0.4,0c-0.1,0-0.2,0-0.4,0c0-0.7,0-1.7,0-2.8v-0.2
		C127,64.5,126.7,64.5,126.5,64.5z"/>
	<path class="st2" d="M129.4,67.5c0-0.2,0-0.6,0-1.2v-1.1c0-0.5,0-0.8,0-1.2c0.2,0,0.5,0,1,0c0.5,0,0.8,0,0.9,0c0,0.1,0,0.2,0,0.2
		c0,0,0,0.1,0,0.2c-0.5,0-0.8,0-1.1,0v1.1h0.3c0.2,0,0.5,0,0.8,0c0,0.1,0,0.2,0,0.2c0,0,0,0.1,0,0.2c-0.2,0-0.4,0-0.8,0h-0.3v1.2
		c0.1,0,0.1,0,0.2,0c0.3,0,0.6,0,0.9,0c0,0.1,0,0.2,0,0.2c0,0,0,0.1,0,0.2c-0.5,0-0.8,0-1.1,0C130,67.5,129.7,67.5,129.4,67.5z"/>
	<path class="st2" d="M132.1,67.5c-0.1,0-0.2,0-0.2,0c0,0-0.1,0-0.2,0c0.2-1,0.4-2.1,0.5-3.4c0.1,0,0.1,0,0.2,0c0.1,0,0.1,0,0.2,0
		c0.4,0.9,0.8,1.7,1.1,2.3c0.5-1,0.9-1.7,1.1-2.3c0.1,0,0.2,0,0.2,0c0,0,0.1,0,0.2,0c0.1,1.2,0.3,2.3,0.5,3.4c-0.2,0-0.3,0-0.4,0
		c-0.1,0-0.3,0-0.4,0c0-0.8-0.1-1.5-0.2-2.2c-0.6,1.2-0.9,2-1,2.3c0,0-0.1,0-0.1,0c0,0-0.1,0-0.1,0c-0.1-0.3-0.5-1.1-1.1-2.2
		C132.2,66.2,132.1,66.9,132.1,67.5z"/>
	<path class="st2" d="M136,67.3c0.1-0.2,0.1-0.4,0.1-0.6h0.1c0.1,0.2,0.1,0.3,0.2,0.4c0.1,0.1,0.2,0.1,0.4,0.1c0.2,0,0.3,0,0.4-0.1
		c0.1-0.1,0.2-0.2,0.2-0.3c0-0.1-0.1-0.3-0.2-0.4c-0.1-0.1-0.3-0.2-0.6-0.3c-0.2-0.1-0.4-0.3-0.5-0.4c-0.1-0.1-0.1-0.3-0.1-0.5
		c0-0.3,0.1-0.6,0.3-0.8c0.2-0.2,0.5-0.3,0.8-0.3c0.1,0,0.3,0,0.4,0.1c0.1,0,0.3,0.1,0.4,0.2c-0.1,0.1-0.1,0.3-0.2,0.5h-0.1
		c-0.1-0.2-0.1-0.3-0.2-0.3c-0.1-0.1-0.2-0.1-0.3-0.1c-0.1,0-0.3,0-0.4,0.1c-0.1,0.1-0.1,0.2-0.1,0.3c0,0.1,0.1,0.3,0.2,0.4
		c0.1,0.1,0.3,0.2,0.6,0.3c0.3,0.1,0.4,0.3,0.5,0.4c0.1,0.2,0.2,0.3,0.2,0.5c0,0.3-0.1,0.6-0.3,0.8c-0.2,0.2-0.5,0.3-0.9,0.3
		c-0.1,0-0.3,0-0.4,0C136.3,67.5,136.2,67.4,136,67.3z"/>
	<text transform="matrix(1 0 0 1 123.3993 76.8338)" class="st2 st3 st4">0043</text>
	<path class="st2" d="M135.8,18c-0.1,0-0.4,0-0.6,0.1c0-0.2,0-0.3,0-0.5c0.2,0,0.3,0.1,0.5,0.1c0.3-0.1,0.5-0.3,0.4-0.6
		c0-0.3-0.3-0.5-0.5-0.5c-0.2,0.1-0.4,0.2-0.5,0.3c0-0.1-0.1-0.3-0.2-0.4c0.2,0,0.3,0,0.4-0.1c0.3-0.1,0.4-0.4,0.3-0.6
		c-0.1-0.3-0.4-0.4-0.7-0.3c-0.1,0.1-0.3,0.2-0.4,0.4c-0.1-0.1-0.2-0.3-0.3-0.4c0.1,0,0.3-0.1,0.4-0.2c0.2-0.2,0.1-0.5-0.1-0.7
		c-0.2-0.2-0.5-0.2-0.7,0c-0.1,0.2-0.2,0.4-0.2,0.6c-0.1-0.1-0.3-0.2-0.5-0.3c0.2-0.1,0.3-0.2,0.4-0.4c0.1-0.2,0-0.5-0.3-0.6
		c-0.3-0.1-0.6,0-0.7,0.3c-0.1,0.1,0,0.4,0.1,0.6c-0.3-0.1-0.5-0.1-0.7-0.1c0.1-0.1,0.2-0.3,0.2-0.4c0-0.3-0.3-0.5-0.5-0.5
		c-0.3,0-0.6,0.2-0.6,0.5c0,0.2,0.2,0.4,0.3,0.5c-0.2,0.1-0.5,0.2-0.7,0.2c0-0.1,0.1-0.3,0-0.4c-0.1-0.3-0.4-0.5-0.6-0.4
		c-0.3,0.1-0.5,0.4-0.4,0.6c0.1,0.2,0.2,0.4,0.4,0.5c-0.2,0-0.4,0.1-0.5,0.2c-0.1,0-0.2,0-0.3,0.1c0.2-0.2,0.2-0.5,0.1-0.7
		c0-0.2-0.3-0.4-0.6-0.3c-0.3,0.1-0.4,0.3-0.3,0.6c0,0.2,0.2,0.4,0.4,0.5c-0.5,0.1-0.7,0-0.7,0v-0.5l-0.2-0.2c0.3-0.4,0.5-0.5,0.5-1
		c0-0.5-0.2-0.9-0.5-1.1c-0.4-0.2-0.6-0.7-0.6-0.8V12c0.2,0,0.6,0,0.8,0.1v-1c-0.4,0.3-0.6,0.3-0.8,0.3V11c0-0.1,0.2-0.4,0.3-0.6
		h-0.6H127c0.1,0.2,0.3,0.5,0.3,0.6v0.3c-0.2,0-0.5,0-0.8-0.2v0.9c0.3-0.1,0.6-0.1,0.8-0.1v0.2c0,0.2-0.3,0.7-0.6,0.9
		c-0.3,0.1-0.5,0.6-0.5,1c0,0.6,0.2,0.7,0.5,1l-0.3,0.2v0.5c0,0-0.1,0.1-0.6,0c0.2-0.1,0.4-0.3,0.4-0.5c0.1-0.2-0.1-0.5-0.3-0.6
		c-0.3-0.1-0.6,0.1-0.7,0.3c0,0.2,0,0.4,0.1,0.6c0,0,0,0,0,0.1c0,0,0,0,0-0.1c0,0-0.1,0-0.2,0c-0.2-0.1-0.3-0.1-0.5-0.2
		c0.2-0.1,0.3-0.3,0.4-0.4c0-0.3-0.1-0.6-0.4-0.7c-0.3-0.1-0.5,0.1-0.6,0.4c-0.1,0.1-0.1,0.3,0,0.5c-0.2-0.1-0.5-0.2-0.8-0.3
		c0.2-0.1,0.3-0.3,0.3-0.5c0-0.3-0.2-0.5-0.5-0.5c-0.3,0-0.5,0.2-0.5,0.5c0,0.1,0.1,0.3,0.2,0.5c-0.2-0.1-0.5,0-0.7,0
		c0.1-0.2,0.1-0.4,0.1-0.6c-0.1-0.3-0.5-0.4-0.7-0.3c-0.3,0.1-0.4,0.4-0.3,0.7c0.1,0.1,0.2,0.3,0.3,0.3c-0.1,0.1-0.3,0.2-0.5,0.3
		c0.1-0.2,0-0.4-0.1-0.6c-0.2-0.2-0.5-0.2-0.8,0c-0.2,0.2-0.2,0.5,0,0.7c0.1,0.1,0.3,0.2,0.4,0.3c-0.1,0.1-0.2,0.2-0.4,0.3
		c0-0.2-0.2-0.3-0.3-0.4c-0.3-0.1-0.6,0-0.7,0.3c-0.1,0.3,0,0.6,0.3,0.7c0.1,0,0.2,0,0.4,0c-0.1,0.1-0.2,0.3-0.2,0.4
		c-0.1-0.1-0.3-0.2-0.5-0.2c-0.3-0.1-0.5,0.1-0.5,0.4c-0.1,0.3,0.1,0.6,0.4,0.6c0.2,0,0.3,0,0.5-0.1c0,0.2,0,0.4,0,0.5
		c-0.2-0.1-0.5-0.1-0.7,0c-0.2,0.1-0.3,0.4-0.2,0.6c0.1,0.3,0.4,0.4,0.6,0.3c0.2,0,0.3-0.2,0.4-0.3c0.1,0.3,0.2,0.5,0.2,0.5
		c0,0.1,0,0.1,0,0.1c-0.2,0-0.4,0-0.6,0c-0.2,0.1-0.4,0.4-0.3,0.7c0.1,0.2,0.4,0.3,0.6,0.3l-0.1,0.3l1.5,3.6l-0.2,0.6l0.5,0.2
		l0.3,0.6c1.7-0.6,3.9-0.8,5.7-0.8c1.8,0,4,0.3,5.6,0.8l0.3-0.6l0.5-0.2l-0.2-0.6l1.5-3.6l-0.1-0.3c0.2,0,0.5-0.1,0.6-0.3
		c0.1-0.3-0.1-0.6-0.3-0.7c-0.2-0.1-0.4-0.1-0.6,0v-0.1c0,0,0.1-0.2,0.2-0.5c0.1,0.1,0.2,0.2,0.3,0.3c0.3,0.1,0.6,0,0.7-0.3
		C136.1,18.4,136.1,18.1,135.8,18z M126.6,14.3c-0.2,0-0.2-0.1-0.2-0.2c0-0.1,0.1-0.2,0.5-0.2c0.4,0,0.4,0,0.4-0.3v-0.3
		c0-0.3,0.1-0.3,0.3-0.3c0.1,0,0.2,0,0.2,0.3v0.3c0,0.3,0,0.3,0.4,0.3c0.4,0,0.6,0.1,0.6,0.2c0,0.1-0.1,0.2-0.3,0.2
		c0,0-0.8-0.1-0.8-0.1C127.4,14.2,126.6,14.3,126.6,14.3z M127.6,17.9c-0.2,0-0.3-0.1-0.3-0.3c0-0.1,0.1-0.3,0.3-0.3
		c0.1,0,0.2,0.2,0.2,0.3C127.8,17.8,127.7,17.9,127.6,17.9z M127.8,18.2c0,0.2-0.1,0.3-0.2,0.3c-0.2,0-0.3-0.1-0.3-0.3
		c0-0.1,0.1-0.2,0.3-0.2C127.7,18,127.8,18.1,127.8,18.2z M127.6,17.1c-0.2,0-0.3-0.1-0.3-0.2c0-0.2,0.1-0.3,0.3-0.3
		c0.1,0,0.2,0.1,0.2,0.3C127.8,17,127.7,17.1,127.6,17.1z M127.6,16.5c-0.2,0-0.3-0.2-0.3-0.3c0-0.2,0.1-0.3,0.3-0.3
		c0.1,0,0.2,0.1,0.2,0.3C127.8,16.3,127.7,16.5,127.6,16.5z M127.6,15.7c-0.2,0-0.3-0.1-0.3-0.3c0-0.2,0.1-0.3,0.3-0.3
		c0.1,0,0.2,0.1,0.2,0.3C127.8,15.6,127.7,15.7,127.6,15.7z M121.7,24.5l-0.4-0.1l0.2-0.4l0.4,0.1L121.7,24.5z M124.7,23.9
		c-0.2,0-0.8,0.1-0.8,0.1c-0.2,0-0.3-0.1-0.3-0.3c0-0.3,0.5-0.5,1.1-0.5c0.3,0,0.5,0.1,0.5,0.3C125.1,23.8,125,23.8,124.7,23.9z
		 M125.7,22.4c-1.3,0-1.6-1.2-1.6-1.3c0-0.2,0.2-0.3,0.3-0.3c0.2,0,0.4,0.2,0.3,0.5c0.3,0,0.7-0.2,0.7-0.7c0-0.3-0.4-0.6-0.8-0.6
		c-0.2,0-0.5,0.1-0.6,0.2c-0.2-0.7-0.5-1-0.6-1.2c-0.4-0.3-0.4-0.3-0.5,0.1c-0.2,0.6-0.1,0.7,0,1.3c-0.2,0-0.9,0.1-0.9,0.7
		c0,0.5,0.3,0.7,0.5,0.7c0.2,0,0.4-0.1,0.5-0.2c-0.2-0.1-0.2-0.1-0.2-0.2c0-0.1,0.2-0.3,0.3-0.3c0.3,0,0.4,0.3,0.4,0.6
		c0,0.7-0.6,1.1-1.1,1.1c-0.8,0-1.1-0.6-1.1-0.8c0.6,0,0.8,0.5,0.9,0.7l0.2-0.1l-1.1-2.7l-0.2,0.1c0.2,0.3,0.3,0.6,0.3,0.7
		c0,0.3-0.2,0.7-0.4,0.7c-0.2-0.1-0.2-0.2-0.2-0.7c0-0.3,0.1-0.7,0.3-1.1c-0.3-0.4-0.6-1.2-0.6-1.6c0-0.9,0.8-2.3,2.4-2.3
		c1.3,0,1.7,0.7,3.7,0.9v2.1c-0.1,0.1-0.3,0.2-0.4,0.2v0.2c0.6,0.5,0.9,0.5,1,1.3c-0.7,0-0.9-0.2-1.3-1h-0.3v3h0.2
		c0.3-0.6,0.7-1,1.3-1C126.9,21.8,126.6,22.4,125.7,22.4z M127.5,23.9l-0.6-0.5l0.6-0.6l0.6,0.6L127.5,23.9z M131.3,24
		c-0.2,0-0.8-0.1-0.8-0.1c-0.3-0.1-0.5-0.1-0.5-0.4c0-0.2,0.2-0.3,0.5-0.3c0.7,0,1.1,0.2,1.1,0.5C131.5,23.9,131.3,24,131.3,24z
		 M133.3,24.5l-0.1-0.4l0.4-0.1l0.1,0.4L133.3,24.5z M134.4,20.6c0,0.5,0,0.6-0.2,0.7c-0.2,0-0.3-0.4-0.3-0.7c0-0.1,0.1-0.4,0.2-0.7
		l-0.2-0.1l-1.1,2.7l0.2,0.1c0.1-0.2,0.4-0.7,0.9-0.7c0,0.3-0.4,0.8-1.1,0.8c-0.6,0-1.1-0.4-1.1-1.1c0-0.3,0.1-0.6,0.4-0.6
		c0.1,0,0.3,0.2,0.3,0.3c0,0.1,0,0.1-0.1,0.2c0,0.1,0.2,0.2,0.4,0.2c0.2,0,0.6-0.2,0.6-0.7c0-0.7-0.8-0.7-1-0.7
		c0.1-0.6,0.2-0.7,0-1.3c-0.1-0.4-0.1-0.4-0.5-0.1c-0.1,0.2-0.4,0.5-0.6,1.2c-0.1-0.1-0.4-0.2-0.6-0.2c-0.4,0-0.8,0.3-0.8,0.6
		c0,0.6,0.4,0.7,0.7,0.7c-0.1-0.3,0.1-0.5,0.3-0.5c0.1,0,0.3,0.1,0.3,0.3c0,0.1-0.3,1.3-1.6,1.3c-0.9,0-1.2-0.7-1.3-1.3
		c0.7,0,1.1,0.5,1.3,1h0.2v-3h-0.3c-0.4,0.8-0.7,1-1.3,1c0.1-0.8,0.5-0.8,1.1-1.3v-0.2c-0.2,0-0.4-0.1-0.5-0.2v-2.2
		c1.6-0.2,2.3-0.9,3.6-0.9c1.5,0,2.4,1.5,2.4,2.4c0,0.4-0.3,1.2-0.6,1.6C134.3,19.8,134.4,20.3,134.4,20.6z"/>
	<g>
		<path class="st2" d="M50.5,12.9c0.1,0,0.2-0.1,0.2-0.1c0.1-0.1,0.1-0.2,0.1-0.3c0-0.1-0.1-0.3-0.1-0.3c-0.1-0.1-0.3-0.1-0.5-0.1
			l-0.6,0l0,0.9l0.6,0C50.2,12.9,50.3,12.9,50.5,12.9z"/>
		<path class="st2" d="M51.9,68.9c-0.2,0-0.3,0.1-0.5,0.2c-0.1,0.1-0.2,0.4-0.2,0.6c0,0.3,0.1,0.5,0.2,0.6c0.1,0.1,0.3,0.2,0.5,0.2
			c0.2,0,0.4-0.1,0.5-0.2c0.1-0.1,0.2-0.4,0.2-0.6c0-0.3-0.1-0.5-0.2-0.6C52.2,68.9,52.1,68.9,51.9,68.9z"/>
		<path class="st2" d="M56.9,68.8c-0.1-0.2-0.3-0.3-0.6-0.3c-0.2,0-0.4,0.2-0.4,0.4c-0.1,0.2,0,0.7,0.1,1.3c0.1,0.6,0.2,1,0.4,1.3
			c0.1,0.2,0.3,0.3,0.5,0.3c0.1,0,0.3-0.1,0.3-0.2c0.1-0.1,0.1-0.3,0.1-0.5c0-0.2,0-0.6-0.1-1C57.2,69.4,57.1,69,56.9,68.8z"/>
		<polygon class="st2" points="55.1,12.5 54.4,14 55.4,14.2 		"/>
		<path class="st2" d="M61.2,67.7c-0.2-0.2-0.4-0.2-0.6-0.2c-0.2,0.1-0.3,0.2-0.4,0.5c0,0.3,0.1,0.7,0.2,1.3c0.2,0.6,0.4,1,0.5,1.2
			c0.2,0.2,0.4,0.3,0.6,0.2c0.1,0,0.2-0.1,0.3-0.3c0.1-0.1,0.1-0.3,0.1-0.5c0-0.2-0.1-0.5-0.2-1C61.6,68.3,61.4,67.9,61.2,67.7z"/>
		<path class="st2" d="M27,23.8c-0.1,0-0.3,0.1-0.4,0.3l-0.4,0.5l0.7,0.5l0.4-0.5c0,0,0.1-0.2,0.2-0.3c0-0.1,0-0.2,0-0.3
			c0-0.1-0.1-0.2-0.2-0.2C27.3,23.8,27.2,23.8,27,23.8z"/>
		<path class="st2" d="M45.6,68.6c-0.3-0.1-0.6,0-0.8,0.2c-0.2,0.2-0.4,0.5-0.5,1c-0.1,0.5-0.1,0.9,0.1,1.1c0.1,0.3,0.4,0.4,0.7,0.5
			c0.3,0.1,0.6,0,0.8-0.2c0.2-0.2,0.4-0.5,0.5-1.1c0.1-0.5,0.1-0.8-0.1-1.1C46.2,68.8,45.9,68.6,45.6,68.6z"/>
		<path class="st2" d="M24.8,30.9c-0.4-0.2-0.8-0.2-1-0.1c-0.2,0.1-0.4,0.3-0.5,0.6l-0.1,0.3l2.3,0.9l0.1-0.3
			c0.1-0.3,0.1-0.5,0.1-0.6c0-0.1-0.1-0.3-0.2-0.4C25.3,31.1,25.1,31,24.8,30.9z"/>
		<path class="st2" d="M51,8.8C32.7,8.8,17.8,23.7,17.8,42c0,18.3,14.9,33.2,33.2,33.2c18.3,0,33.2-14.9,33.2-33.2
			C84.3,23.7,69.4,8.8,51,8.8z M81.9,43.9l-0.9,0l0-2.3l-0.7,0l0,2.1l-0.9,0l0-2.1l-0.9,0l0,2.4l-1,0l0-3.7l4.4,0L81.9,43.9z
			 M81.8,39.2l-1.1,0.2L80.5,38l-3.3,0.5L77,37.2l3.3-0.5l-0.2-1.4l1.1-0.2L81.8,39.2z M80.5,32.4c0.2,0.5,0.2,1,0.1,1.3
			c-0.1,0.3-0.4,0.6-0.8,0.8l-0.5-1.2c0.2-0.1,0.3-0.2,0.3-0.3c0.1-0.1,0-0.3,0-0.5c0-0.2-0.1-0.3-0.2-0.3c-0.1-0.1-0.2-0.1-0.3,0
			c-0.1,0-0.1,0.1-0.2,0.2c0,0.1,0,0.2,0,0.5c0.1,0.6,0.1,1.1,0,1.3c0,0.3-0.1,0.5-0.3,0.7c-0.2,0.2-0.3,0.3-0.6,0.4
			c-0.3,0.1-0.5,0.1-0.8,0c-0.3-0.1-0.5-0.2-0.7-0.5c-0.2-0.2-0.4-0.6-0.5-1c-0.2-0.7-0.3-1.3-0.1-1.6c0.2-0.4,0.5-0.6,0.9-0.8
			l0.5,1.2c-0.2,0.1-0.3,0.2-0.4,0.3c-0.1,0.2-0.2,0.4-0.1,0.7c0.1,0.2,0.2,0.3,0.3,0.4c0.1,0.1,0.2,0.1,0.4,0.1
			c0.1,0,0.2-0.1,0.3-0.2c0.1-0.1,0.1-0.4,0-0.7c-0.1-0.6,0-1.1,0.1-1.4c0.1-0.3,0.4-0.5,0.7-0.6c0.2-0.1,0.4-0.1,0.7,0
			c0.2,0.1,0.4,0.2,0.6,0.4C80.2,31.7,80.3,32,80.5,32.4z M64.3,16.2c0.4-0.6,0.8-1,1.4-1.2c0.6-0.1,1.1,0,1.8,0.3
			c0.6,0.4,1,0.8,1.2,1.4c0.1,0.5,0,1.1-0.3,1.7c-0.3,0.4-0.6,0.8-0.9,1c-0.3,0.2-0.7,0.3-1,0.3c-0.4,0-0.8-0.1-1.2-0.4
			c-0.4-0.3-0.7-0.5-1-0.8c-0.2-0.3-0.3-0.7-0.3-1.1C63.9,17.1,64,16.7,64.3,16.2z M58.5,11.9l2.2,0.7c0.4,0.1,0.7,0.2,0.9,0.4
			c0.2,0.1,0.3,0.3,0.4,0.5c0.1,0.2,0.1,0.5,0,0.7c-0.1,0.2-0.2,0.4-0.3,0.6c-0.2,0.1-0.3,0.2-0.5,0.3c-0.1,0-0.3,0-0.5,0
			c0.1,0.1,0.2,0.2,0.3,0.3c0,0,0.1,0.1,0.1,0.3c0.1,0.1,0.1,0.2,0.1,0.3l0.3,1.4L60,17l-0.3-1.5c0-0.2-0.1-0.3-0.1-0.4
			c-0.1-0.1-0.2-0.2-0.3-0.2l-0.1,0l-0.5,1.7l-1.3-0.4L58.5,11.9z M47,11.3l0.2,1.1l-1.4,0.3l0.7,3.3l-1.3,0.3l-0.7-3.3l-1.4,0.3
			l-0.2-1.1L47,11.3z M38.9,14.2c0.1-0.2,0.2-0.5,0.4-0.7c0.2-0.2,0.5-0.4,1-0.5c0.5-0.2,1-0.2,1.3-0.1c0.4,0.1,0.6,0.4,0.8,0.8
			l-1.2,0.5c-0.1-0.2-0.2-0.3-0.4-0.3c-0.1,0-0.3,0-0.5,0c-0.2,0.1-0.3,0.1-0.3,0.2c-0.1,0.1-0.1,0.2,0,0.3c0,0.1,0.1,0.1,0.2,0.1
			c0.1,0,0.2,0,0.5,0c0.6-0.1,1.1-0.1,1.3-0.1c0.3,0,0.5,0.1,0.7,0.3c0.2,0.1,0.3,0.3,0.4,0.6c0.1,0.3,0.1,0.5,0,0.8
			c-0.1,0.3-0.2,0.5-0.4,0.7c-0.2,0.2-0.5,0.4-0.9,0.5c-0.7,0.3-1.2,0.3-1.6,0.1c-0.4-0.2-0.7-0.5-0.8-0.9l1.2-0.5
			c0.1,0.2,0.2,0.3,0.3,0.4c0.2,0.1,0.4,0.1,0.7,0c0.2-0.1,0.3-0.2,0.4-0.3c0.1-0.1,0.1-0.2,0-0.4c0-0.1-0.1-0.2-0.2-0.2
			c-0.1-0.1-0.4-0.1-0.7,0c-0.6,0.1-1.1,0.1-1.4-0.1c-0.3-0.1-0.5-0.3-0.7-0.7C38.9,14.6,38.9,14.4,38.9,14.2z M37.5,14.2l2,4
			l-1.2,0.6l-2-4L37.5,14.2z M21.3,33.8l0.9,0.2l-0.5,2.3l0.7,0.1l0.4-2.1l0.9,0.2l-0.4,2.1l0.9,0.2l0.5-2.3l1,0.2l-0.8,3.7
			l-4.3-0.9L21.3,33.8z M20.4,38.4l1.1,0.1l-0.1,1.4l3.3,0.2l-0.1,1.4l-3.3-0.2l-0.1,1.4l-1.1-0.1L20.4,38.4z M20.2,43.5l4.4-0.3
			l0.1,1.4l-4.4,0.3L20.2,43.5z M20.9,49l2.1-2.1l-2.4,0.4l-0.2-1.3l4.4-0.8l0.2,1.3l-2.1,2.1l2.4-0.4l0.2,1.3l-4.4,0.8L20.9,49z
			 M26.7,53.3c0,0.2-0.1,0.4-0.2,0.6c-0.1,0.2-0.2,0.3-0.4,0.5c-0.2,0.2-0.5,0.3-0.7,0.4L23,55.6l-0.5-1.3l2.5-1
			c0.2-0.1,0.4-0.2,0.5-0.4c0.1-0.2,0.1-0.4,0-0.6c-0.1-0.2-0.2-0.4-0.4-0.4c-0.2-0.1-0.4-0.1-0.6,0l-2.5,1l-0.5-1.3l2.5-0.9
			c0.2-0.1,0.5-0.1,0.7-0.1c0.2,0,0.5,0,0.7,0.1c0.2,0.1,0.4,0.2,0.5,0.4c0.2,0.2,0.3,0.5,0.5,0.8c0.1,0.2,0.1,0.4,0.2,0.7
			C26.7,52.9,26.8,53.1,26.7,53.3z M26.6,32.3l-0.7,1.9l-4.1-1.6l0.7-1.9c0.1-0.4,0.3-0.7,0.5-0.8c0.2-0.2,0.4-0.3,0.7-0.4
			c0.2-0.1,0.5-0.1,0.8-0.1c0.3,0,0.6,0.1,0.8,0.2c0.4,0.2,0.8,0.4,1,0.6c0.2,0.2,0.4,0.4,0.4,0.7c0.1,0.2,0.1,0.5,0.1,0.7
			C26.7,31.8,26.7,32.1,26.6,32.3z M30,25.6l-1.5-0.2c-0.2,0-0.3,0-0.4,0c-0.1,0-0.2,0.1-0.3,0.2l-0.1,0.1l1.4,1.1l-0.8,1.1
			l-3.5-2.7l1.4-1.8c0.3-0.3,0.5-0.6,0.7-0.7c0.2-0.1,0.4-0.2,0.7-0.2c0.2,0,0.5,0.1,0.7,0.3c0.2,0.1,0.3,0.3,0.4,0.5
			c0.1,0.2,0.1,0.4,0.1,0.6c0,0.1-0.1,0.3-0.2,0.5c0.1-0.1,0.3-0.2,0.3-0.2c0.1,0,0.2,0,0.3,0c0.2,0,0.3,0,0.3,0l1.4,0.3L30,25.6z
			 M31,24.3L28,21.1l2.7-2.5l0.7,0.7l-1.7,1.6l0.5,0.5l1.5-1.5l0.6,0.7L30.7,22l0.6,0.6l1.7-1.6l0.7,0.7L31,24.3z M33.6,20.6
			c-0.3-0.2-0.7-0.5-0.9-0.9c-0.3-0.4-0.4-0.8-0.5-1.2c0-0.4,0.1-0.8,0.3-1.2c0.2-0.3,0.5-0.6,0.9-0.9c0.4-0.3,0.7-0.4,1-0.5
			c0.3-0.1,0.5-0.1,0.7,0c0.2,0.1,0.5,0.2,0.7,0.4l-1,0.9c-0.1-0.1-0.3-0.2-0.4-0.2c-0.2,0-0.3,0.1-0.5,0.2
			c-0.2,0.2-0.4,0.4-0.4,0.7c0,0.3,0.1,0.6,0.3,1c0.3,0.4,0.5,0.6,0.8,0.7c0.3,0.1,0.5,0,0.8-0.2c0.1-0.1,0.2-0.2,0.3-0.3
			c0.1-0.1,0.2-0.3,0.3-0.5l-0.2-0.3L35,18.9l-0.5-0.8l1.8-1.2l1.1,1.6c-0.2,0.5-0.4,0.8-0.6,1.1c-0.2,0.3-0.5,0.5-0.8,0.7
			c-0.4,0.3-0.8,0.5-1.2,0.5C34.3,20.9,34,20.8,33.6,20.6z M34.8,68.9l2.3-4.5l1.4,0.7l-2.3,4.5L34.8,68.9z M42.5,68.2l-1.4-0.4
			c0-0.2,0-0.4-0.1-0.5c-0.1-0.1-0.2-0.2-0.4-0.3c-0.2-0.1-0.3-0.1-0.4,0c-0.1,0-0.2,0.1-0.2,0.2c0,0.1,0,0.2,0,0.2
			c0,0.1,0.2,0.2,0.4,0.4c0.6,0.4,1,0.7,1.2,0.9c0.2,0.2,0.4,0.5,0.4,0.7c0,0.3,0,0.5-0.1,0.8c-0.1,0.3-0.3,0.5-0.6,0.7
			c-0.3,0.2-0.6,0.3-0.9,0.3c-0.3,0-0.7-0.1-1.2-0.2c-0.8-0.3-1.3-0.7-1.5-1.1c-0.2-0.4-0.2-0.9-0.1-1.4l1.4,0.4
			c-0.1,0.2-0.1,0.4,0,0.6c0.1,0.2,0.3,0.4,0.5,0.5c0.2,0.1,0.4,0.1,0.5,0c0.1-0.1,0.2-0.1,0.3-0.3c0-0.1,0-0.3,0-0.4
			c-0.1-0.1-0.3-0.3-0.6-0.5c-0.6-0.4-1-0.7-1.1-1.1c-0.2-0.3-0.2-0.7-0.1-1.1c0.1-0.2,0.2-0.4,0.5-0.6c0.2-0.2,0.5-0.3,0.8-0.3
			c0.3,0,0.7,0.1,1.2,0.2c0.6,0.2,1,0.5,1.2,0.8C42.6,67.3,42.6,67.7,42.5,68.2z M47.9,70.4c-0.1,0.6-0.3,1-0.6,1.4
			c-0.3,0.3-0.6,0.6-1,0.7c-0.4,0.1-0.9,0.1-1.4,0c-0.6-0.1-1-0.3-1.3-0.5c-0.3-0.2-0.6-0.6-0.7-1c-0.2-0.4-0.2-0.9-0.1-1.5
			c0.2-0.8,0.5-1.4,1-1.7c0.5-0.4,1.2-0.5,2-0.3c0.8,0.2,1.4,0.5,1.8,1C48,69,48.1,69.6,47.9,70.4z M49.6,15.6l-1.4,0.1l-0.2-4.4
			l2.3-0.1c0.4,0,0.7,0,1,0.1c0.2,0.1,0.4,0.2,0.6,0.4c0.1,0.2,0.2,0.4,0.2,0.7c0,0.2,0,0.5-0.1,0.6c-0.1,0.2-0.2,0.3-0.4,0.5
			c-0.1,0.1-0.3,0.1-0.5,0.2c0.2,0,0.3,0.1,0.4,0.1c0.1,0,0.1,0.1,0.2,0.2c0.1,0.1,0.2,0.2,0.2,0.3l0.6,1l2.1-3.9l1.5,0.2l1.1,4.6
			l-1.4-0.2l-0.1-0.8L54,14.9l-0.3,0.7l-1.3-0.2l-1.4,0.1l-0.8-1.3c-0.1-0.2-0.2-0.3-0.3-0.3c-0.1-0.1-0.2-0.1-0.3-0.1l-0.1,0
			L49.6,15.6z M53.6,72.5c-0.4,0.4-0.9,0.7-1.6,0.7c-0.4,0-0.7,0-0.9-0.1c-0.2-0.1-0.4-0.2-0.6-0.4c-0.2-0.2-0.3-0.4-0.4-0.7
			l1.4-0.2c0,0.2,0.1,0.3,0.2,0.4c0.1,0.1,0.2,0.1,0.3,0.1c0.2,0,0.4-0.1,0.5-0.4c0.1-0.2,0.1-0.5,0.2-1.1c-0.2,0.2-0.3,0.3-0.5,0.4
			c-0.2,0.1-0.4,0.1-0.6,0.1c-0.4,0-0.8-0.1-1.1-0.4c-0.3-0.3-0.5-0.7-0.5-1.2c0-0.3,0.1-0.6,0.2-0.9c0.2-0.3,0.4-0.5,0.6-0.6
			c0.3-0.1,0.6-0.2,1-0.2c0.5,0,0.9,0.1,1.2,0.2c0.3,0.2,0.6,0.4,0.7,0.8c0.2,0.4,0.3,0.9,0.3,1.5C54.1,71.4,53.9,72.1,53.6,72.5z
			 M58.5,71.8c-0.2,0.5-0.7,0.8-1.5,0.9c-0.4,0.1-0.8,0.1-1,0c-0.3-0.1-0.5-0.2-0.7-0.5c-0.2-0.2-0.3-0.4-0.4-0.7
			c-0.1-0.3-0.2-0.6-0.3-1c-0.2-0.9-0.1-1.6,0.2-2.1c0.3-0.4,0.8-0.7,1.5-0.8c0.3-0.1,0.6-0.1,0.8,0c0.2,0,0.4,0.1,0.6,0.2
			c0.2,0.1,0.3,0.2,0.4,0.4c0.1,0.1,0.2,0.3,0.3,0.5c0.2,0.4,0.3,0.7,0.3,1.1C58.8,70.7,58.7,71.4,58.5,71.8z M63.2,70.5
			c-0.2,0.5-0.6,0.9-1.3,1.1c-0.4,0.1-0.7,0.2-1,0.1c-0.3-0.1-0.6-0.2-0.8-0.4c-0.2-0.1-0.3-0.4-0.5-0.6c-0.2-0.3-0.3-0.6-0.4-1
			c-0.3-0.9-0.3-1.6-0.1-2.1c0.2-0.5,0.7-0.8,1.3-1c0.3-0.1,0.6-0.1,0.8-0.1c0.2,0,0.4,0.1,0.6,0.2c0.2,0.1,0.3,0.2,0.4,0.3
			c0.1,0.1,0.2,0.3,0.3,0.4c0.2,0.3,0.4,0.7,0.5,1.1C63.3,69.3,63.4,70,63.2,70.5z M66.2,69.8l-1.4-3c-0.1,0.3-0.3,0.5-0.4,0.7
			c-0.1,0.2-0.3,0.4-0.6,0.6l-0.5-1c0.4-0.3,0.6-0.7,0.8-1c0.1-0.3,0.2-0.6,0.2-1l1-0.5l2.2,4.6L66.2,69.8z M71,21.4l-1.3-1.1
			l-1.2,1.4l-1.1-0.9l2.8-3.4l2.6,2.2l-0.6,0.7L70.7,19l-0.5,0.6l1.3,1.1L71,21.4z M73.1,27.1c-0.3-0.2-0.5-0.4-0.8-0.8
			c-0.4-0.6-0.6-1.1-0.6-1.5c0.1-0.4,0.3-0.8,0.6-1l0.8,1C73.1,24.9,73,25,73,25.2c-0.1,0.2,0,0.4,0.1,0.7c0.1,0.2,0.2,0.3,0.4,0.3
			c0.1,0,0.3,0,0.4-0.1c0.1-0.1,0.1-0.2,0.2-0.3c0-0.1,0-0.4-0.2-0.7c-0.2-0.6-0.3-1-0.3-1.4c0-0.3,0.2-0.6,0.5-0.8
			c0.2-0.1,0.4-0.2,0.6-0.2s0.5,0.1,0.7,0.2c0.2,0.1,0.5,0.4,0.8,0.8c0.3,0.5,0.5,0.9,0.5,1.2s-0.2,0.7-0.5,1l-0.8-1
			c0.1-0.1,0.2-0.3,0.2-0.4c0-0.1,0-0.3-0.2-0.5c-0.1-0.1-0.2-0.2-0.3-0.2s-0.2,0-0.3,0c-0.1,0-0.1,0.1-0.1,0.2c0,0.1,0,0.2,0.1,0.5
			c0.2,0.6,0.4,1,0.4,1.3c0,0.3,0,0.5-0.1,0.7c-0.1,0.2-0.2,0.4-0.4,0.5c-0.2,0.2-0.5,0.3-0.8,0.3C73.7,27.3,73.4,27.2,73.1,27.1z
			 M74.3,29.4l1.7-0.8l1.5-2.7l0.7,1.4l-0.9,1.5l1.7,0.1l0.7,1.4l-3.1-0.4l-1.7,0.8L74.3,29.4z M80.1,53.1c-0.2,0.5-0.4,0.9-0.7,1.1
			c-0.3,0.2-0.7,0.3-1.1,0.2l0.4-1.2c0.2,0,0.4,0,0.5-0.1c0.1-0.1,0.2-0.2,0.3-0.4c0.1-0.2,0.1-0.3,0-0.4c0-0.1-0.1-0.2-0.2-0.2
			c-0.1,0-0.1,0-0.2,0c-0.1,0-0.2,0.2-0.3,0.4c-0.3,0.5-0.6,0.9-0.8,1.1c-0.2,0.2-0.4,0.3-0.7,0.4c-0.2,0-0.5,0-0.7-0.1
			c-0.3-0.1-0.5-0.3-0.7-0.5c-0.2-0.2-0.3-0.5-0.3-0.8c0-0.3,0-0.7,0.2-1.1c0.3-0.7,0.6-1.2,0.9-1.3c0.4-0.2,0.8-0.2,1.2-0.1
			l-0.4,1.3c-0.2,0-0.4,0-0.5,0c-0.2,0.1-0.4,0.2-0.5,0.5c-0.1,0.2-0.1,0.3,0,0.5c0,0.1,0.1,0.2,0.2,0.3c0.1,0,0.2,0,0.3,0
			c0.1-0.1,0.3-0.3,0.5-0.6c0.3-0.5,0.6-0.9,0.9-1c0.3-0.2,0.6-0.2,0.9-0.1c0.2,0.1,0.4,0.2,0.5,0.4c0.1,0.2,0.2,0.4,0.2,0.7
			C80.3,52.3,80.2,52.7,80.1,53.1z M81.6,46.9l-2.8,0.2l2.5,1.1L81,50.1l-4.4-0.8l0.2-1.1l3.3,0.6L77,47.4l0.2-1l3.5-0.3l-3.3-0.6
			l0.2-1.1l4.4,0.8L81.6,46.9z"/>
		<path class="st2" d="M60.3,14.2c0.1,0,0.2,0,0.3-0.1c0.1-0.1,0.1-0.1,0.2-0.2c0-0.1,0-0.3,0-0.4c-0.1-0.1-0.2-0.2-0.5-0.3
			l-0.6-0.2L59.3,14l0.6,0.2C60,14.2,60.1,14.2,60.3,14.2z"/>
		<path class="st2" d="M65.6,18.5c0.3,0.1,0.5,0.2,0.7,0.1c0.2-0.1,0.5-0.3,0.7-0.8c0.2-0.4,0.3-0.7,0.2-0.9c0-0.3-0.2-0.4-0.4-0.6
			c-0.2-0.1-0.5-0.2-0.7-0.1c-0.2,0.1-0.5,0.3-0.7,0.7c-0.2,0.4-0.3,0.7-0.3,1C65.2,18.1,65.4,18.3,65.6,18.5z"/>
		<polygon class="st2" points="52.5,15.5 52.6,15.5 52.5,15.2 52.3,15.5 		"/>
	</g>
	<g>
		<path class="st2" d="M51.1,17.6v3c11.7,0,21.1,9.2,21.4,20.8c0.3,11.8-9,21.7-20.8,22c-0.2,0-0.4,0-0.6,0
			c-11.7,0-21.1-9.2-21.4-20.8c-0.2-5.7,1.9-11.2,5.8-15.3s9.3-6.5,15-6.7c0.2,0,0.4,0,0.6,0L51.1,17.6 M51.1,17.6
			c-0.2,0-0.5,0-0.7,0C36.9,18,26.3,29.2,26.7,42.7C27,55.9,37.9,66.4,51,66.4c0.2,0,0.5,0,0.7,0C65.2,66,75.8,54.7,75.4,41.3
			C75.1,28,64.2,17.6,51.1,17.6L51.1,17.6z"/>
	</g>
	<g>
		<defs>
			<path id="SVGID_1_" d="M32.4,28.1C32.4,28.1,32.4,28.1,32.4,28.1c0.3-0.4,0.6-0.7,0.9-1.1C33,27.4,32.7,27.7,32.4,28.1 M33.3,27
				c0.1-0.1,0.1-0.1,0.2-0.2C33.4,26.9,33.3,26.9,33.3,27 M46.2,60.6C46.2,60.6,46.2,60.6,46.2,60.6C46.2,60.6,46.2,60.6,46.2,60.6
				 M42.7,39.3c-0.3-0.1,0.3-0.2,0.3-0.2c0.1,0,0.2,0.1,0.2,0.1v0.1c0,0,0,0,0,0.1c0,0-0.1,0.1-0.1,0.1h0
				C42.9,39.4,42.9,39.4,42.7,39.3 M46,39.2c0,0,0.2-0.1,0.4-0.1c0.2,0,0.1,0.1,0,0.3h-0.3C45.9,39.3,46,39.2,46,39.2 M44.2,39.1
				c0.1-0.3-0.2-0.2,0.1-0.3c0.2-0.1,0.5-0.2,0.7-0.2h0.1c0.1,0,0.2,0,0.2,0.1c0.2,0.1,0.6,0.2,0.6,0.3v0c0,0,0,0.1-0.1,0.1
				c-0.4,0.2-0.6,0.1-0.9,0.2c-0.2,0.1-0.3,0.1-0.7,0.1c-0.3,0-0.5-0.1-0.5-0.2v0c0,0,0,0,0-0.1c0,0,0.1,0.1,0.3,0.1
				C44.1,39.3,44.2,39.3,44.2,39.1 M41,38c0.1-0.2,0.6-0.3,0.6-0.3s0.4,0,0.8,0.1c0.3,0.1,0.3,0.2,0.7,0.4c0.3,0.2,0.4,0.1,0.6,0.2
				c0.1,0,0.2,0.1,0.2,0.1v0.1c0,0-0.1,0.1-0.2,0.1c-0.1,0-0.1,0-0.2,0c-0.1,0-0.2-0.1-0.5-0.2c-0.4-0.1-0.4-0.3-0.6-0.4
				c-0.2-0.1-0.3-0.2-0.5-0.2c-0.1,0-0.3,0-0.5,0.1c-0.2,0.1-0.4,0.1-0.4,0.1C40.9,38.1,41,38.1,41,38 M64.4,28.7L64.4,28.7
				c0-0.2,0.1-0.3,0.1-0.5c0-0.2-0.1-0.2,0-0.4c0.1-0.1-0.1-0.1,0.2-0.2c0.2-0.1,0.3-0.1,0.5-0.1c0.1,0,0.1,0.1,0.2,0.1
				c0,0,0.1,0,0.1,0l0.3,0c-0.2,0-0.2,0-0.2,0.2c0,0.2,0.1,0.3,0,0.5c-0.2,0.2-0.1,0.3-0.4,0.3c-0.2,0-0.4,0.1-0.5,0.2L64.4,28.7
				C64.4,28.8,64.4,28.7,64.4,28.7 M46.2,25v-0.1c0-0.1,0-0.1,0.1-0.2c0.2-0.1,0.2-0.2,0.4-0.3h0.1c0,0,0.1,0,0.1,0
				c0.3,0.1,0.8,0.5,0.6,0.5c0,0-0.1,0-0.1,0c-0.1,0-0.1-0.1-0.3-0.1c-0.1,0-0.1,0-0.2,0c-0.1,0-0.2,0-0.3,0.1
				c-0.2,0.1-0.2,0.1-0.3,0.1C46.2,25.1,46.2,25.1,46.2,25 M44.4,21.5c0.2,0,0.5,0.1,0.4,0.3c0,0.1-0.1,0.1-0.2,0.1
				c-0.2,0-0.5-0.1-0.7-0.1c-0.3,0-0.4,0.1-0.8,0.2c0,0-0.1,0-0.1,0h-0.2c-0.2,0-0.3-0.2-0.4-0.3v-0.1c0.1-0.2,0.8-0.2,0.8-0.2
				s0.2,0.1,0.6,0.1C44.2,21.6,44.1,21.5,44.4,21.5 M37.5,23.1c0.2,0,0.3-0.1,0.4-0.1c0.1,0,0.2,0,0.3,0c0.6,0.1,1,0.2,1.4,0.3
				c0.4,0.1,0.2,0.3,1,0.4c0.5,0,0.8,0.1,1,0.1c0.1,0,0.2,0,0.3-0.1c0.2-0.1,0.8-0.2,0.1-0.3c-0.7-0.1-0.8,0.1-1-0.2
				c-0.2-0.2-0.3,0-0.2-0.3c0.1-0.3,0.2-0.2,0.1-0.4c-0.1-0.2,0.3-0.2,0.1-0.2c0,0-0.1,0-0.2,0c-0.6,0-0.5,0.1-0.8,0.1
				c-0.2,0-0.5,0.2-0.6,0.2c-0.1,0-0.1,0,0-0.2c0.2-0.3,0.1-0.3,0.5-0.5c0.5-0.2,0.5-0.2,1-0.2c0.1,0,0.3,0,0.4,0
				c0.3,0,0.6,0,0.3,0.2c-0.4,0.2-0.8,0.3-0.5,0.4c0.2,0-0.1,0.1,0.1,0.1c0.1,0,0.2,0,0.5,0c0.9-0.1,0.9-0.1,1.3-0.1
				c0.4,0,0.1,0,0.5,0c0.3,0,0.6-0.1,0.7-0.1c0.1,0,0,0,0,0.1c-0.3,0.2-0.7,0-0.7,0.3c0.1,0.3-0.2,0.3,0.2,0.4
				c0.4,0.1,0.5,0.2,0.2,0.2c-0.2,0-0.2,0-0.3,0c-0.1,0-0.1,0-0.3,0c-0.1,0-0.1,0-0.2,0c-0.1,0-0.2,0-0.2,0c-0.1,0-0.1,0-0.2,0
				c-0.1,0-0.1,0-0.2,0.2c0,0.3-0.3,0.4,0.2,0.4c0.3,0,0.4,0,0.5,0c0.1,0,0.2,0,0.4-0.1c0.1,0,0.1,0,0.2,0c0.1,0,0.1,0,0.1,0
				c0,0,0,0,0,0c0,0,0,0,0.2-0.2c0.2-0.3,0.4-0.5,0.5-0.5c0,0,0,0,0,0.1c-0.1,0.2-0.1,0.3-0.2,0.4c-0.1,0.1-0.1,0.3,0,0.3
				c0,0,0.1,0,0.1-0.1c0.3-0.2,0.6,0,0.6-0.4s-0.2-0.4,0-0.5c0.2-0.1,0.4-0.3,0.2-0.3c-0.2,0-0.4,0.1-0.5,0.1c0,0-0.1,0-0.1,0
				c-0.2-0.1-0.4-0.1-0.3-0.2c0.1-0.2,0.1-0.3,0.6-0.3c0.4,0,0.1,0,0.4,0c0.2,0,0.2-0.2,0.2-0.2c0,0,0,0,0.1,0.1
				c0.1,0.3-0.2,0.3,0.1,0.3c0.3,0,0.4,0,0.6-0.1c0.2-0.1,0.3-0.1,0.5-0.2c0,0,0,0,0,0c0.1,0,0.1,0.1,0.2,0.1
				c0.1,0.1,0.1,0.1,0.2,0.1c0,0,0,0,0.1,0c0.3-0.1,0.9-0.2,1.3-0.2c0.4,0,0.2,0,0.8,0.2c0.6,0.2,0.9,0.1,1.2,0.4
				c0.2,0.3,0.5,0.3,0.5,0.5c0,0.3-0.4,0.4,0.1,0.5c0.1,0,0.2,0,0.2,0c0,0,0.1,0,0.1,0h0.1c0.1,0,0.2,0,0.3,0.1
				c0.1,0.3,0.4,0.4,0.1,0.5c-0.2,0.1-0.3,0.1-0.5,0.1c-0.2,0-0.5-0.2-0.6-0.2c0,0-0.1,0,0,0.1c0.2,0.3,0.6,0.3,0.5,0.5
				c-0.1,0.2,0,0.3-0.3,0.3c-0.3,0-0.4,0-0.6-0.1c-0.1,0-0.1-0.2-0.1-0.2c0,0,0,0,0,0.2c-0.1,0.3,0.4,0.3-0.1,0.3
				c-0.2,0-0.4,0.1-0.4,0.1c-0.1,0-0.1,0-0.2-0.1c-0.2-0.2-0.2-0.2-0.4-0.3c-0.2-0.1,0.1-0.1-0.4-0.1c-0.3,0-0.5,0.1-0.6,0.1
				c-0.1,0-0.1,0-0.1-0.1c0-0.2,0.1-0.3,0.4-0.4c0,0,0,0,0.1,0c0.1,0,0.1,0,0.2,0c0,0,0.1,0,0.1,0c0.1,0,0.1,0,0.3-0.1
				c0.4-0.3,0.8-0.1,0.7-0.5c-0.2-0.3-0.3-0.5-0.6-0.6c-0.3-0.1-0.4-0.1-0.8-0.1c-0.2,0-0.3,0-0.4,0c-0.1,0-0.2,0-0.2,0.1
				c0,0.2,0.1,0.4-0.1,0.5c-0.1,0.1-0.1,0.2-0.3,0.3c-0.2,0.1-0.2,0.1-0.5,0.1c-0.2,0-0.4,0.1-0.5,0.1c0,0,0,0,0-0.1
				c0.1-0.3,0-0.3,0.3-0.4c0.3-0.2,0.4,0,0.5-0.3c0-0.1,0-0.1,0-0.1c0,0,0,0,0,0c0,0-0.1,0-0.1-0.2c-0.1-0.4,0-0.1-0.1-0.4
				c-0.1-0.2,0.1-0.4,0.1-0.4c0,0-0.1,0-0.2,0.1c-0.5,0.2-0.5,0.1-0.7,0.3c-0.2,0.2-0.3,0.1-0.2,0.4c0.1,0.3,0.1,0.3,0.3,0.3
				c0.2,0,0.6,0.1,0.3,0.3c-0.3,0.2-0.4,0.2-0.3,0.4c0.1,0.2,0.3,0.2-0.1,0.4c-0.4,0.2-0.6,0.4-1.2,0.6c-0.6,0.2-0.8,0.1-1.3,0.4
				c-0.5,0.3-0.6,0.2-0.7,0.5c-0.1,0.3-0.3,0.3-0.1,0.6c0.2,0.3,0.3,0.3,0.6,0.4c0.3,0.1,0.5,0.3,0.9,0.4c0.1,0,0.2,0,0.2,0
				c0.1,0,0.1,0,0.1,0c0.2,0,0.4,0,0.3,0.2c-0.1,0.3-0.5,0.7-0.3,0.9c0.1,0.1,0.3,0.3,0.5,0.3c0.1,0,0.2-0.1,0.3-0.3
				c0.2-0.5,0.1-0.7,0.4-0.9c0.1-0.1,0.2-0.1,0.3-0.1c0,0,0.1,0,0.1,0c0.2,0,0.3-0.1,0.4-0.4c0.2-0.6-0.1-0.6,0.2-0.9
				c0.3-0.3,0.4-0.5,0.6-0.8c0.1-0.1,0.2-0.2,0.3-0.2c0.1,0,0.3,0,0.6,0.1c0.6,0.1,1,0.5,0.8,0.8c-0.1,0.3-0.4,0.4-0.1,0.4
				c0.1,0,0.2,0,0.2,0c0.1,0,0.2,0,0.5-0.2c0.2-0.2,0.4-0.4,0.5-0.4c0,0,0.1,0,0.1,0.1c0.1,0.2,0.3,0.3,0.2,0.6
				c-0.1,0.3-0.3,0.3-0.1,0.6c0.2,0.3,0.8,0.3,0.9,0.6c0.1,0.2,0.5,0.5,0.1,0.6c-0.3,0.1-0.2,0.6-0.2,0.7c0,0.2,0.2,0.2,0.4,0.4
				c0.2,0.2,0.3,0.5,0.1,0.6c0,0-0.1,0-0.1,0c-0.1,0-0.1-0.1-0.5-0.1c-0.2,0-0.5,0-0.7,0c-0.2,0-0.3,0-0.3-0.1
				c0.1-0.2,0.1-0.2,0.4-0.4c0.3-0.2,0.5-0.3,0.5-0.5c0-0.2,0-0.3-0.1-0.3c0,0-0.1,0-0.2,0.1c-0.3,0.2-0.2,0.3-0.6,0.3
				c-0.4,0-0.4,0-0.8,0c-0.3,0-0.4-0.1-0.6-0.1c-0.1,0-0.2,0-0.3,0.1c-0.3,0.2-0.8,0.3-0.8,0.5c0,0.1,0.1,0.1,0.2,0.1
				c0.1,0,0.2,0,0.3-0.1c0.1,0,0.3-0.1,0.4-0.1c0.2,0,0.4,0,0.3,0.1c-0.2,0.2-0.5,0.2-0.4,0.4c0.1,0.1,0.4,0.3,0.6,0.3
				c0.1,0,0.2,0,0.2-0.1c0.1-0.1,0.2-0.1,0.3-0.1c0.2,0,0.4,0.1,0.2,0.2c-0.2,0.2-0.4,0.4-0.8,0.5c-0.1,0-0.2,0-0.2,0
				c-0.1,0-0.2,0-0.2,0c-0.1,0-0.2,0-0.2,0c0,0-0.1,0-0.1,0c-0.2,0-0.4,0.1-0.5,0.1c-0.1,0-0.2,0-0.3,0c-0.1,0-0.2-0.1-0.3-0.1
				c0,0-0.1,0-0.1,0c-0.3,0-0.4,0.3-0.8,0.6c-0.4,0.3-0.5,0.3-0.9,0.6c-0.3,0.3-0.4,0.4-0.7,0.6c-0.2,0.2-0.1,0.2-0.2,0.2
				c0,0,0,0-0.1,0c-0.2,0-0.3-0.1-0.3-0.1c0,0,0,0-0.1,0.1c-0.1,0.2-0.1,0.3,0,0.4c0,0.2,0.1,0.3,0,0.5c-0.1,0.2-0.3,0.3-0.6,0.4
				c-0.3,0.2-0.3,0.2-0.8,0.5c-0.4,0.3-0.6,0.2-0.7,0.6c-0.1,0.4,0,0.6,0,1c0,0.4,0.2,0.7-0.1,0.8c-0.1,0-0.1,0-0.2,0
				c-0.2,0-0.4-0.2-0.4-0.6c0-0.5-0.1-0.8-0.1-0.8s-0.3-0.1-0.6-0.1c-0.3,0-0.5-0.1-0.8-0.1c-0.1,0-0.3,0-0.3,0
				c-0.1,0-0.1,0-0.1,0.1v0.3c0,0,0,0.1-0.2,0.1c0,0,0,0-0.1,0c-0.2,0-0.3-0.1-0.6-0.2c-0.2-0.1,0-0.2-0.1-0.2c-0.1,0-0.2,0-0.4,0.1
				c-0.7,0.3-1,0.3-1.1,0.7c-0.1,0.4,0,0.5-0.2,0.8c-0.2,0.3-0.4,0.5-0.3,1c0.1,0.5,0.2,1,0.5,1.1c0.2,0,0.3,0.1,0.5,0.1
				c0.1,0,0.3,0,0.5,0c0.4,0,0.5-0.2,0.7-0.5c0.2-0.3,0.4-0.4,0.8-0.4c0.4,0,0.5,0,0.2,0.4c-0.3,0.4-0.8,0.7-0.6,1.1
				c0.1,0.2,0.1,0.2,0.3,0.2c0.1,0,0.2,0,0.4-0.1c0.1,0,0.1,0,0.2,0c0.3,0,0.6,0.1,0.6,0.2c0,0.2,0.2,0.4,0.1,0.6
				c-0.1,0.2,0,0.8,0,0.8s0,0.1,0.1,0.4c0.1,0.3,0.2,0.4,0.3,0.4c0,0,0,0,0.1,0c0.2,0,0.3-0.4,0.5-0.4c0.2,0,0.1,0,0.4,0.2
				c0.2,0.2,0.4,0.2,0.4,0.2l0,0c0.3-0.5,1-0.6,1-0.6s0.2-0.2,0.6-0.4c0.1,0,0.1-0.1,0.1-0.1c0.1,0-0.1,0.2,0,0.4
				c0,0.1,0.1,0.1,0.1,0.1c0,0,0.1-0.2,0.4-0.3c0.1-0.1,0.2-0.1,0.2-0.1c0,0-0.1,0.1,0.3,0.1c0.5,0,0,0,0.3,0.3
				c0.1,0.1,0.2,0.2,0.2,0.2c0,0,0.1,0,0.1,0c0.1,0,0.2,0,0.4,0c0.6,0,0.7,0.1,1.4,0.3c0.7,0.3,0.2,0.1,0.9,0.7
				c0.5,0.5,0.4,0.5,0.6,0.5h0h0.2c0.4,0.1,1.1,0.3,1.4,0.6c0.3,0.3,0.2,0.4,0.3,0.7c0.1,0.3,0.3,0.3,0.7,0.6c0.4,0.4,0.5,0.1,1,0.4
				c0.5,0.3,0.3,0.1,1,0.3c0.7,0.2,0.4,0.1,0.9,0.4c0.6,0.3,0.4,0.3,1.1,0.5c0.6,0.2,0.1,0.4,0.1,0.9c-0.1,0.5-0.9,1.2-1.1,1.7
				c-0.2,0.5-0.1,0.7-0.1,1.1c0,0.4,0,0.4-0.2,0.9c-0.2,0.4-0.2,0.4-0.4,0.6c-0.1,0.2-0.4,0.6-0.7,0.6c-0.3,0-0.4,0-0.9,0.4
				c-0.5,0.4-0.5,0.6-0.4,1c0,0.4,0,0.2-0.1,0.4c-0.1,0.2,0,0-0.2,0.2c-0.2,0.2,0,0.2-0.1,0.3c0,0.2-0.1,0.3-0.2,0.4
				c-0.1,0.1-0.2,0.3-0.3,0.4c-0.1,0.1-0.3,0.5-0.7,0.6c-0.4,0.1-0.7,0-0.8,0.2c-0.1,0.2,0,0,0.1,0.2c0.1,0.2,0.1,0.1,0.1,0.5
				c0.1,0.4,0,0.2-0.4,0.5c-0.1,0.1-0.2,0.2-0.3,0.2c-0.1,0-0.2-0.2-0.4-0.2c-0.3,0-0.2,0.2-0.2,0.3c0,0.1,0,0.2-0.1,0.2
				c-0.1,0.1-0.2,0.1-0.3,0.3c-0.1,0.1-0.1,0.1-0.1,0.1c0,0,0,0,0,0c0,0,0,0,0,0c0,0,0.1,0,0.1,0.1c0.1,0.2,0.1,0.1,0.1,0.4
				c0,0.3-0.1,0.2-0.1,0.4c0,0.3,0,0-0.3,0.3c-0.1,0.1-0.1,0.1-0.1,0.1c0,0,0,0,0,0c0,0,0,0,0.1,0c0,0,0.1,0,0.1,0
				c0,0.2,0,0.1,0.2,0.3c0.1,0.2,0.2,0.2,0.3,0.3c0.1,0.2,0,0-0.1,0.4c0,0.2,0,0.2,0,0.2c0,0,0,0,0,0c0,0,0,0,0,0c0,0,0,0,0,0
				c-0.1,0.2-0.1,0.1-0.1,0.3c0,0.2,0,0,0.1,0.3c0,0.1,0,0.1,0,0.1c0,0,0,0-0.1,0c0,0-0.1,0-0.1,0c0,0-0.1,0-0.1,0
				c-0.2,0.1,0,0.2,0,0.2l0.2,0.1c0.1,0,0.1,0,0.1,0c0,0,0-0.1,0.1-0.1c0,0,0.1,0,0.1,0c0.1,0,0.1,0.2,0.3,0.3
				c0.2,0.1,0.1,0.1,0.3,0.2c0.1,0.1,0.1,0.1,0.3,0.2c0.1,0.1,0.1,0.1,0,0.2c0,0-0.1,0-0.1,0c-0.1,0-0.2,0-0.5,0h-0.2h0h-0.1
				c-0.3,0-0.1,0-0.1,0s-0.2-0.1-0.6-0.3c-0.2-0.1-0.2-0.1-0.2-0.1c0,0,0,0-0.1-0.1c-0.3-0.1-0.1-0.1-0.3-0.3c0-0.1,0-0.1,0-0.1
				c0,0,0,0,0,0c0,0,0,0,0-0.1c0-0.1-0.1-0.1-0.1-0.1c0,0,0,0,0,0l-0.3-0.2c0,0-0.1,0-0.3-0.3c-0.1-0.1-0.1-0.1-0.1-0.1c0,0,0,0,0,0
				h0c0,0,0,0,0-0.1c-0.1-0.2-0.1-0.1-0.2-0.5c0-0.1-0.1-0.1-0.1-0.1c0,0,0,0,0,0c0,0,0,0,0,0c0-0.1,0.1-0.2,0.1-0.3
				c0-0.1,0-0.1,0-0.1c0,0,0,0,0,0c0,0,0,0,0,0c0,0-0.1,0-0.1,0c-0.2-0.1,0,0,0-0.1l-0.2-0.6c0,0-0.1-0.1-0.1-0.4c0-0.1,0-0.1,0-0.1
				c0,0,0.1,0.1,0.2,0.1c0.1,0,0.2,0.2,0.2,0.2c0,0,0,0,0-0.1c0.1-0.2,0-0.2-0.2-0.5c-0.1-0.3-0.1-0.1-0.2-0.5
				c-0.1-0.4-0.1-0.4-0.2-0.9c-0.1-0.6,0.1-0.7,0.1-1.2c0.1-0.5-0.2-0.7-0.2-1.3c0-0.7,0-0.8,0.1-1.4c0.1-0.6-0.1-1.5-0.1-2
				c-0.1-0.4-0.4-0.5-1.1-0.9c-0.7-0.4-0.8-0.4-1-0.7c-0.2-0.3-0.9-1.6-1.2-2.2c-0.3-0.6-0.7-0.9-0.6-1.2c0.1-0.4,0.2-0.5,0.1-0.8
				c0-0.3,0-0.3,0.3-0.5c0.4-0.2,0.3-0.3,0.6-0.9c0.3-0.6,0-0.7,0.2-1.5c-0.1,0.3-0.1,0.4-0.1,0.4s-0.1-0.2-0.3-0.4
				c-0.1-0.1-0.3-0.3-0.4-0.3c0,0-0.1,0-0.1,0.1c-0.1,0.2,0,0.4-0.1,0.4c0,0,0,0-0.1,0c-0.2-0.1-0.1-0.1-0.3-0.3
				c-0.3-0.2-0.2-0.1-0.4-0.3c-0.2-0.2,0.3-0.2-0.2-0.2c-0.2,0-0.4,0-0.5,0c-0.1,0-0.1,0-0.1-0.2c-0.1-0.3,0.1-0.5-0.1-0.6
				c0,0-0.1,0-0.1,0c0,0-0.1,0-0.1,0c0,0-0.1,0-0.1,0c-0.1,0-0.1,0-0.2-0.1c-0.3-0.2-0.1-0.1-0.6-0.3c-0.5-0.2-0.5-0.1-1-0.5
				c-0.4-0.3-0.6-0.4-0.7-0.4c0,0-0.1,0-0.1,0c-0.1,0-0.3,0.1-0.6,0.1c-0.3,0-0.8-0.1-1.2-0.4c-0.7-0.6-0.9-0.5-0.9-0.8
				c0-0.3,0.4-0.2,0.1-0.7c-0.3-0.6-0.7-1.1-1-1.5c-0.3-0.5-0.5-0.5-0.5-0.9c0-0.4,0.1-0.5-0.1-0.6c-0.2-0.1-0.3-0.2-0.4-0.2
				c0,0-0.1,0-0.1,0.1c-0.1,0.3-0.1,0.4,0,0.7c0.1,0.3,0.1,0.4,0.3,0.6c0.1,0.3,0,0.3,0.2,0.6c0.1,0.2,0.4,0.4,0.3,0.6
				c0,0.1-0.1,0.2-0.1,0.2s-0.1-0.1-0.2-0.1c-0.1-0.2-0.2-0.1-0.3-0.3c-0.1-0.2,0.2,0,0.1-0.2c-0.1-0.2,0.1-0.2-0.2-0.3
				c-0.1,0-0.1,0-0.1,0c0,0,0,0,0,0c0,0,0,0,0,0c0,0,0,0-0.1-0.2c-0.1-0.3,0.1-0.2,0.1-0.4c0-0.3-0.1-0.2-0.2-0.4
				c-0.1-0.2-0.1-0.4-0.1-0.7c-0.1-0.4-0.1-0.3-0.4-0.7c-0.2-0.3-0.4-0.6-0.4-1.2v-0.4c0-0.2,0-0.3,0-0.5c0.1-1.3,0.8-1.7,1-1.9
				c0.2-0.2,0.4-0.5,0.1-0.8c-0.3-0.3-0.5-0.3-0.4-0.4c0-0.1,0.1-0.1,0.3-0.1c0.1,0,0.3,0.1,0.4,0.2c0.1,0.2,0.1,0.6,0.3,0.6
				c0.2,0,0.5-0.2,0.2-0.4c-0.2-0.2-0.5-0.2-0.6-0.6c-0.1-0.2-0.1-0.3-0.2-0.4c-2.9,3.9-4.6,8.7-4.6,13.9
				c0,12.8,10.4,23.3,23.3,23.3c8.8,0,16.4-4.9,20.4-12c0-0.2-0.1-0.6-0.1-0.9c0-0.5-0.4-0.2-0.6-1.4c-0.1-1.1,0.2-1.6,0.5-1.9
				c0.3-0.3-0.1-0.6-0.2-0.9c-0.1-0.3-0.2-0.5-0.2-1.1c0-0.6-0.9-0.9-1.1-1.3c-0.2-0.4-0.1-0.4,0.1-0.9c0.1-0.6,0.4-0.7,0-1
				c-0.1-0.1-0.3-0.1-0.4-0.1c-0.1,0-0.2,0-0.3,0c-0.1,0-0.2,0-0.3,0c-0.1,0-0.1,0-0.2,0c-0.4-0.1-0.3-0.7-0.9-0.7c0,0,0,0-0.1,0
				c-0.7,0.1-0.6,0.3-1,0.5c-0.1,0.1-0.2,0.1-0.4,0.1c-0.2,0-0.3,0-0.5-0.1c-0.2,0-0.4-0.1-0.6-0.1c0,0-0.1,0-0.1,0
				c-0.6,0-0.4,0.2-0.8,0.2c-0.5,0-0.6-0.3-0.8-0.7c-0.2-0.4-0.9-0.7-1.1-1c-0.2-0.3-0.8-1.1-0.8-1.5c0-0.3,0-0.6,0.2-1.3
				c0.2-0.7-0.1-0.3-0.2-0.6c-0.1-0.2,0-0.6,0.3-0.9c0.2-0.4,0.4-0.7,0.9-1.2c0.4-0.5,0.3-0.3,0.8-0.6c0.5-0.2,0.2-0.8,0.4-1.1
				c0.1-0.3,0.1-0.2,0.5-0.4c0.4-0.2,0.4-0.4,0.8-0.7c0.1-0.1,0.2-0.1,0.3-0.1c0.2,0,0.3,0.1,0.6,0.2c0.1,0,0.2,0,0.2,0
				c0.2,0,0.3-0.1,0.6-0.2c0.4-0.2,0.7-0.2,1.2-0.4c0.2-0.1,0.4-0.1,0.6-0.1c0.1,0,0.2,0,0.3,0c0.1,0,0.2,0,0.3,0c0.1,0,0.2,0,0.4,0
				c0.1,0,0.1,0,0.1,0c0.6,0,0.2,0.3,0.2,0.8c0,0.5-0.1,0.4,0.1,0.6c0.2,0.2,0.9,0.2,1.3,0.3c0.4,0,0.3,0.1,0.7,0.3
				c0.4,0.2,0.4,0.3,0.8,0.4c0.1,0,0.1,0,0.1,0c0.1,0,0.2-0.2,0.2-0.4c-0.4-1.4-1-2.7-1.7-3.9l-0.4-0.2c-0.2-0.2-0.4-0.4-0.5-0.4
				c0,0-0.1,0-0.1,0.1c-0.2,0.2,0,0.3,0.2,0.6c0.2,0.3,0.3,0.3,0.7,0.4c0.2,0.1,0.3,0.2,0.4,0.2l0.2,0.1c0,0.1,0.1,0.2,0.1,0.2
				c0,0-0.1,0-0.1,0l-0.1,0c-0.1,0-0.1,0.2-0.1,0.4c0,0.2-0.2,0.3-0.5,0.5c-0.1,0-0.1,0.1-0.2,0.1c-0.1,0-0.1-0.1-0.3-0.2
				c-0.3-0.2,0-0.2,0.5-0.2c0.4,0,0.3-0.2,0.3-0.4c0.1-0.2-0.1-0.3-0.4-0.4c-0.3-0.1-0.3-0.1-0.8-0.3c-0.5-0.2-0.3-0.3-0.6-0.5
				c-0.2-0.1-0.3-0.2-0.3-0.2c-0.1,0-0.2,0-0.3,0.1c-0.4,0.2-0.3,0.1-0.8,0.2c-0.5,0-0.2,0-0.5,0.2c-0.2,0.2-0.1,0.2-0.3,0.5
				c-0.2,0.3-0.3,0.1-0.6,0.4c-0.3,0.3,0,0-0.1,0.5c0,0.5-0.1,0.2-0.6,0.5c-0.2,0.1-0.3,0.2-0.4,0.2c0,0-0.1,0-0.1,0
				c0,0-0.1,0-0.1,0c0,0,0,0-0.1,0c-0.2,0.1-0.2,0.1-0.3,0.1c-0.1,0-0.1,0-0.2-0.1c-0.3-0.1-0.2-0.2-0.4-0.2
				c-0.2-0.1-0.3-0.2-0.4-0.5c0,0,0-0.1,0-0.1v-0.1c0-0.1,0.1-0.2,0.2-0.4c0.1-0.3,0-0.3,0-0.6c0-0.2,0.1-0.3,0.2-0.3
				c0.1,0,0.7,0,0.9,0h0.7c0,0,0.3-0.1,0.3-0.4c0-0.3,0.2-0.5-0.1-0.6c-0.3-0.2-0.3-0.1-0.5-0.2c-0.2-0.1-0.3-0.2,0-0.3
				c0.3-0.1,0.4-0.1,0.7-0.2c0.3-0.1,0.6-0.3,0.4-0.3c-0.2-0.1-0.2-0.1-0.4-0.1c-0.2,0-0.2,0-0.5,0.1c-0.2,0.1-0.3,0.2-0.4,0.2
				c0,0,0,0,0-0.1c0-0.3,0-0.1,0-0.5c0.1-0.3-0.2-0.1,0.1-0.3c0.3-0.2,0.4-0.1,0.3-0.3c-0.1-0.2,0.2,0-0.1-0.2
				c-0.2-0.2-0.1-0.2-0.2-0.2c0,0,0,0-0.1,0l-0.1,0l-0.1-0.1c-0.1-0.2-0.3-0.1-0.2-0.4c0.1-0.3-0.3-0.2,0.2-0.4
				c0.3-0.1,0.5-0.2,0.6-0.2c0,0,0.1,0,0.1,0.1c0.1,0.1,0.3,0.2,0.2,0.4c-0.1,0.2-0.2,0.3-0.1,0.5c0.1,0.2,0.2,0.2,0.4,0.4
				c0.2,0.1,0,0.2,0.2,0.3c0.3,0.1,0.5,0.1,0.4,0.3c-0.1,0.1-0.2,0.4-0.1,0.4c0,0,0,0,0.1,0c0.3-0.1,0.3-0.2,0.6-0.5
				c0.3-0.2,0.4-0.2,0.8-0.3c0.3-0.1,0.5,0,0.4-0.3c0-0.2-0.2-0.4-0.2-0.5c-1.7-2-3.7-3.8-6-5.1c-0.2,0.1-0.4,0.2-0.6,0.5
				c-0.4,0.6-0.1,0.2-0.6,0.6c-0.4,0.4-0.2,0.3-1.2,0.3c-0.9,0.1-0.8,0.3-1.3,0.5s-0.7,0.3-1.7,0.5c-1,0.3-0.7,0.6-1.1,1.1
				c-0.2,0.2-0.2,0.3-0.3,0.3H56c-0.1,0-0.3-0.1-0.6-0.2c-0.7-0.2-0.9-0.8-0.9-1.6c0-0.9,0.4-0.5,0.9-0.7c0.5-0.2,0-0.3-0.2-0.5
				c-0.1-0.2-0.3-0.2-0.1-0.5c0.1-0.3,0-0.2-0.3-0.6c-0.2-0.2-0.3-0.2-0.6-0.2c-0.1,0-0.2,0-0.4,0c-0.1,0-0.3,0-0.5,0
				c-0.1,0-0.3,0-0.5,0c-1.3,0-0.4-0.1-0.3-0.5c0-0.2,0.2-0.2,0.5-0.2c0.1,0,0.3,0,0.4,0c0.1,0,0.2,0,0.4,0c0.1,0,0.2,0,0.3,0
				c0.6,0,0.3-0.2-0.1-0.4c-0.1-0.1-0.2-0.1-0.3-0.1c-0.2,0-0.5,0.1-0.9,0.2c-0.6,0.1-0.8,0.3-1.2,0.3c-0.4,0.1-0.6,0.2-1.2,0.4
				c-0.6,0.3-0.4,0.2-0.8,0.4c-0.2,0.1-0.3,0.1-0.4,0.1c-0.1,0-0.2,0-0.4,0c-0.5,0-0.5,0-0.9,0c-0.5,0-0.3-0.1-0.4-0.4
				c0-0.1,0-0.1,0-0.1c0.1,0,0.4,0.1,0.6,0.2c0.1,0,0.1,0,0.2,0c0.2,0,0.2-0.1,0.6-0.2c0.5-0.1,0.6-0.2,1.1-0.6
				c0.3-0.2,0.2-0.2-0.1-0.2c-0.2,0-0.4,0-0.6,0c-0.3,0-0.3,0.1-0.7,0.2c-0.2,0.1-0.3,0.1-0.4,0.1c-0.1,0-0.2,0-0.4-0.1
				c-0.3-0.1,0.2-0.3,0.4-0.5c0.1-0.1,0.1-0.1,0.2-0.1c0.2,0,0.5,0.1,0.7,0.1c0,0,0.6-0.1,1-0.1c0.4,0,0.5-0.1,1.4-0.2
				c0.5,0,0.8,0,1.2,0c0.1,0,0.2,0,0.3,0c0.2,0,0.3,0,0.6,0c0.2,0,0.4,0,0.5,0c0.3,0,0.3,0,0.7,0.1c0.6,0,0.4,0.2,0,0.2
				c-0.4,0-0.3,0.1-0.1,0.3c0,0,0.1,0,0.1,0c0.2,0,0.5-0.2,0.7-0.2c0.3,0,0.5-0.1,1.3-0.3c0.3-0.1,0.7-0.1,1.1-0.2
				c-2.2-0.7-4.6-1.1-7-1.1C46,18.7,41.3,20.3,37.5,23.1"/>
		</defs>
		<clipPath id="SVGID_2_">
			<use xlink:href="#SVGID_1_"  style="overflow:visible;"/>
		</clipPath>
		<rect x="27.8" y="18.7" class="st5" width="45.4" height="46.5"/>
	</g>
	<g>
		<defs>
			<path id="SVGID_3_" d="M46.2,60.6C46.2,60.6,46.2,60.6,46.2,60.6C46.2,60.6,46.2,60.6,46.2,60.6 M46.2,60.6
				C46.2,60.6,46.2,60.6,46.2,60.6C46.2,60.6,46.2,60.6,46.2,60.6 M46.2,60.6C46.2,60.6,46.2,60.6,46.2,60.6
				C46.2,60.6,46.2,60.6,46.2,60.6 M42.7,39.3c0.2,0.1,0.2,0.1,0.3,0.1h0c0,0,0.1,0,0.1-0.1c0,0,0,0,0-0.1v-0.1
				c0-0.1-0.1-0.1-0.2-0.1C43,39.1,42.4,39.1,42.7,39.3 M46,39.2c0,0-0.1,0.1,0,0.2h0.3c0.1-0.1,0.2-0.3,0-0.3
				C46.2,39.1,46,39.2,46,39.2 M45,38.7c-0.2,0-0.5,0.1-0.7,0.2c-0.3,0.1,0,0-0.1,0.3c0,0.1-0.1,0.1-0.2,0.1c-0.1,0-0.3-0.1-0.3-0.1
				c0,0,0,0,0,0.1v0c0,0.1,0.2,0.2,0.5,0.2c0.4,0,0.5-0.1,0.7-0.1c0.2-0.1,0.5,0,0.9-0.2c0.1,0,0.1-0.1,0.1-0.1v0
				c0-0.1-0.4-0.2-0.6-0.3C45.2,38.7,45.2,38.7,45,38.7L45,38.7z M41,38c-0.1,0.1-0.1,0.2,0,0.2c0.1,0,0.2,0,0.4-0.1
				c0.2,0,0.4-0.1,0.5-0.1c0.2,0,0.4,0.1,0.5,0.2c0.3,0.1,0.3,0.3,0.6,0.4c0.3,0.1,0.4,0.2,0.5,0.2c0,0,0.1,0,0.2,0
				c0.1,0,0.2-0.1,0.2-0.1v-0.1c0,0-0.1-0.1-0.2-0.1c-0.2-0.1-0.3,0-0.6-0.2c-0.3-0.2-0.3-0.3-0.7-0.4c-0.3-0.1-0.8-0.1-0.8-0.1
				S41.1,37.8,41,38 M68.2,33.1c-0.5,0.2-0.8,0.2-1.2,0.4c-0.3,0.1-0.4,0.2-0.6,0.2c-0.1,0-0.1,0-0.2,0c-0.3,0-0.4-0.2-0.6-0.2
				c-0.1,0-0.2,0-0.3,0.1c-0.4,0.3-0.4,0.5-0.8,0.7c-0.4,0.2-0.4,0.1-0.5,0.4c-0.1,0.3,0.1,0.9-0.4,1.1c-0.5,0.2-0.4,0.1-0.8,0.6
				c-0.4,0.5-0.6,0.9-0.9,1.2c-0.2,0.4-0.4,0.7-0.3,0.9c0.1,0.2,0.4-0.1,0.2,0.6c-0.2,0.7-0.3,0.9-0.2,1.3c0,0.3,0.6,1.2,0.8,1.5
				c0.2,0.3,0.8,0.6,1.1,1c0.2,0.4,0.4,0.7,0.8,0.7c0.5,0,0.3-0.1,0.8-0.2c0,0,0.1,0,0.1,0c0.2,0,0.4,0,0.6,0.1
				c0.2,0,0.3,0.1,0.5,0.1c0.1,0,0.2,0,0.4-0.1c0.5-0.2,0.4-0.5,1-0.5c0,0,0,0,0.1,0c0.6,0,0.5,0.6,0.9,0.7c0.1,0,0.1,0,0.2,0
				c0.1,0,0.2,0,0.3,0c0.1,0,0.2,0,0.3,0c0.1,0,0.2,0,0.4,0.1c0.4,0.3,0.1,0.5,0,1c-0.1,0.6-0.3,0.6-0.1,0.9
				c0.2,0.4,1.1,0.7,1.1,1.3c0,0.6,0.1,0.7,0.2,1.1c0.1,0.3,0.5,0.6,0.2,0.9c-0.3,0.3-0.7,0.8-0.5,1.9c0.1,1.1,0.6,0.9,0.6,1.4
				c0,0.3,0,0.7,0.1,0.9c0.6-1,1.1-2.1,1.5-3.2c0,0,0-0.1,0-0.1c0.9-2.5,1.4-5.2,1.4-8c0-2.4-0.4-4.8-1.1-7c0,0.2-0.1,0.4-0.2,0.4
				c0,0-0.1,0-0.1,0c-0.4-0.1-0.4-0.2-0.8-0.4c-0.4-0.2-0.3-0.3-0.7-0.3c-0.4-0.1-1-0.1-1.3-0.3c-0.2-0.2-0.2-0.1-0.1-0.6
				c0-0.4,0.4-0.8-0.2-0.8c0,0-0.1,0-0.1,0c-0.1,0-0.3,0-0.4,0c-0.1,0-0.2,0-0.3,0c-0.1,0-0.2,0-0.3,0C68.5,33,68.4,33.1,68.2,33.1
				 M64.6,27.6c-0.3,0.1-0.1,0.1-0.2,0.2c-0.1,0.1,0,0.1,0,0.4c0,0.2-0.1,0.2-0.1,0.4v0.1c0,0,0,0.1,0,0.1h0.1
				c0.1,0,0.3-0.2,0.5-0.2c0.3,0,0.3-0.1,0.4-0.3c0.1-0.2,0-0.3,0-0.5c0-0.2,0.1-0.2,0.2-0.2l-0.3,0c-0.1,0-0.1,0-0.1,0
				c-0.1,0-0.1-0.1-0.2-0.1C64.9,27.5,64.9,27.5,64.6,27.6 M65.6,26.7c-0.5,0.2-0.1,0.1-0.2,0.4c-0.1,0.3,0.1,0.1,0.2,0.4l0.1,0.1
				l0.1,0c0.1,0,0.1,0,0.1,0c0,0,0,0.1,0.2,0.2c0.3,0.2,0,0,0.1,0.2c0.1,0.2-0.1,0.1-0.3,0.3c-0.3,0.2,0,0-0.1,0.3
				c-0.1,0.3,0,0.1,0,0.5c0,0.1,0,0.1,0,0.1c0.1,0,0.2-0.2,0.4-0.2c0.3-0.1,0.3-0.1,0.5-0.1c0.2,0,0.2,0,0.4,0.1
				c0.2,0.1-0.2,0.2-0.4,0.3c-0.2,0.1-0.4,0.1-0.7,0.2c-0.3,0.1-0.2,0.2,0,0.3c0.2,0.1,0.2,0.1,0.5,0.2c0.3,0.2,0.1,0.3,0.1,0.6
				c0,0.3-0.3,0.4-0.3,0.4h-0.7c-0.3,0-0.8,0-0.9,0c-0.1,0-0.2,0.1-0.2,0.3c0,0.2,0.2,0.2,0,0.6c-0.1,0.2-0.2,0.3-0.2,0.4v0.1
				c0,0,0,0.1,0,0.1c0.1,0.3,0.2,0.4,0.4,0.5c0.2,0,0.1,0.1,0.4,0.2c0.1,0,0.2,0.1,0.2,0.1c0.1,0,0.2-0.1,0.3-0.1c0,0,0,0,0.1,0
				c0,0,0.1,0,0.1,0c0,0,0.1,0,0.1,0c0.1,0,0.2,0,0.4-0.2c0.5-0.3,0.6,0,0.6-0.5c0.1-0.5-0.3-0.2,0.1-0.5c0.3-0.3,0.4-0.2,0.6-0.4
				c0.2-0.3,0.1-0.3,0.3-0.5c0.2-0.2,0-0.1,0.5-0.2c0.5,0,0.4,0,0.8-0.2c0.2-0.1,0.2-0.1,0.3-0.1c0.1,0,0.2,0.1,0.3,0.2
				c0.3,0.2,0.1,0.3,0.6,0.5c0.5,0.2,0.5,0.2,0.8,0.3c0.3,0.1,0.5,0.2,0.4,0.4c0,0.3,0.1,0.4-0.3,0.4c-0.4,0-0.8,0-0.5,0.2
				c0.2,0.1,0.2,0.2,0.3,0.2c0,0,0.1,0,0.2-0.1c0.3-0.2,0.5-0.2,0.5-0.5c0-0.3-0.1-0.4,0.1-0.4l0.1,0c0,0,0.1,0,0.1,0
				c0-0.1-0.1-0.2-0.1-0.2l-0.2-0.1c-0.1-0.1-0.2-0.1-0.4-0.2c-0.4-0.2-0.5-0.1-0.7-0.4c-0.2-0.3-0.4-0.4-0.2-0.6
				c0,0,0.1-0.1,0.1-0.1c0.1,0,0.3,0.2,0.5,0.4l0.4,0.2c-0.7-1.4-1.6-2.7-2.6-3.9c0,0.2,0.2,0.4,0.2,0.5c0.1,0.3-0.1,0.1-0.4,0.3
				c-0.3,0.1-0.5,0.1-0.8,0.3c-0.3,0.2-0.3,0.4-0.6,0.5c0,0-0.1,0-0.1,0c-0.1,0,0.1-0.2,0.1-0.4c0.1-0.2-0.2-0.2-0.4-0.3
				c-0.2-0.1-0.1-0.2-0.2-0.3c-0.2-0.1-0.2-0.2-0.4-0.4c-0.1-0.2,0-0.3,0.1-0.5c0.1-0.2-0.1-0.2-0.2-0.4c0,0-0.1-0.1-0.1-0.1
				C66.1,26.5,66,26.6,65.6,26.7 M46.7,24.4c-0.1,0-0.2,0.1-0.4,0.3c-0.1,0.1-0.1,0.1-0.1,0.2V25c0,0.1,0,0.1,0,0.1
				c0.1,0,0.1-0.1,0.3-0.1c0.1-0.1,0.2-0.1,0.3-0.1c0.1,0,0.1,0,0.2,0c0.2,0,0.2,0.1,0.3,0.1c0,0,0.1,0,0.1,0c0.2,0-0.2-0.4-0.6-0.5
				c0,0-0.1,0-0.1,0H46.7z M41,21.8c-0.5,0-0.5,0-1,0.2c-0.5,0.2-0.3,0.2-0.5,0.5c-0.1,0.1-0.1,0.2,0,0.2c0.1,0,0.4-0.2,0.6-0.2
				c0.3,0,0.2-0.1,0.8-0.1c0.1,0,0.2,0,0.2,0c0.1,0-0.2,0.1-0.1,0.2c0.1,0.2,0,0.1-0.1,0.4c-0.1,0.3,0.1,0.1,0.2,0.3
				c0.2,0.2,0.3,0.1,1,0.2c0.7,0.1,0.1,0.1-0.1,0.3c-0.1,0.1-0.2,0.1-0.3,0.1c-0.2,0-0.5,0-1-0.1c-0.8,0-0.6-0.3-1-0.4
				c-0.4-0.1-0.8-0.2-1.4-0.3c-0.1,0-0.3,0-0.3,0c-0.2,0-0.3,0-0.4,0.1c0,0-0.1,0.1-0.1,0.1c-0.4,0.3-0.8,0.6-1.3,1
				c-0.1,0-0.1,0.1-0.2,0.1c-0.4,0.3-0.8,0.7-1.1,1c0,0-0.1,0.1-0.1,0.1c-0.4,0.4-0.8,0.8-1.1,1.2c0,0.1-0.1,0.1-0.1,0.2
				c-0.4,0.4-0.7,0.9-1,1.3c0,0.1,0.1,0.2,0.2,0.4c0.1,0.3,0.4,0.4,0.6,0.6c0.2,0.2,0,0.4-0.2,0.4c-0.2,0-0.2-0.3-0.3-0.6
				c-0.1-0.1-0.2-0.2-0.4-0.2c-0.1,0-0.2,0-0.3,0.1c0,0.2,0.1,0.2,0.4,0.4c0.3,0.3,0.1,0.5-0.1,0.8c-0.2,0.3-0.9,0.6-1,1.9
				c0,0.2,0,0.4,0,0.5v0.4c0,0.7,0.2,1,0.4,1.2c0.3,0.3,0.3,0.3,0.4,0.7c0,0.4-0.1,0.5,0.1,0.7c0.1,0.2,0.2,0.2,0.2,0.4
				c0,0.3-0.2,0.1-0.1,0.4c0.1,0.1,0.1,0.2,0.1,0.2c0,0,0,0,0,0c0,0,0,0,0,0c0,0,0.1,0,0.1,0c0.3,0.2,0.1,0.1,0.2,0.3
				c0.1,0.2-0.2,0-0.1,0.2c0.1,0.2,0.2,0.2,0.3,0.3c0.1,0.1,0.1,0.1,0.2,0.1s0.1-0.1,0.1-0.2c0.1-0.3-0.2-0.4-0.3-0.6
				c-0.1-0.2-0.1-0.3-0.2-0.6c-0.1-0.3-0.1-0.4-0.3-0.6c-0.1-0.3-0.1-0.3,0-0.7c0-0.1,0-0.1,0.1-0.1c0.1,0,0.2,0.2,0.4,0.2
				c0.2,0.1,0.1,0.2,0.1,0.6c0,0.4,0.2,0.4,0.5,0.9c0.3,0.5,0.7,1,1,1.5c0.3,0.6-0.1,0.4-0.1,0.7c0,0.3,0.1,0.2,0.9,0.8
				c0.4,0.3,0.8,0.4,1.2,0.4c0.3,0,0.5-0.1,0.6-0.1c0,0,0.1,0,0.1,0c0.2,0,0.4,0.1,0.7,0.4c0.5,0.4,0.5,0.3,1,0.5
				c0.5,0.2,0.3,0.1,0.6,0.3c0.1,0.1,0.2,0.1,0.2,0.1c0,0,0.1,0,0.1,0c0,0,0.1,0,0.1,0c0,0,0.1,0,0.1,0c0.2,0.1,0.1,0.3,0.1,0.6
				c0,0.2,0,0.2,0.1,0.2c0.1,0,0.2,0,0.5,0c0.5,0,0,0,0.2,0.2c0.2,0.2,0.1,0.2,0.4,0.3c0.3,0.2,0.1,0.2,0.3,0.3c0,0,0,0,0.1,0
				c0.1,0,0-0.2,0.1-0.4c0-0.1,0.1-0.1,0.1-0.1c0.1,0,0.2,0.1,0.4,0.3c0.2,0.2,0.3,0.4,0.3,0.4s0-0.1,0.1-0.4
				c-0.1,0.9,0.1,0.9-0.2,1.5c-0.3,0.6-0.3,0.7-0.6,0.9c-0.4,0.2-0.4,0.2-0.3,0.5c0.1,0.3,0,0.5-0.1,0.8c-0.1,0.3,0.2,0.6,0.6,1.2
				c0.3,0.6,0.9,1.9,1.2,2.2c0.3,0.3,0.3,0.3,1,0.7c0.7,0.4,1,0.5,1.1,0.9c0.1,0.4,0.2,1.4,0.1,2c-0.1,0.6-0.1,0.7-0.1,1.4
				c0,0.6,0.3,0.9,0.2,1.3c0,0.5-0.2,0.6-0.1,1.2c0.1,0.6,0.1,0.6,0.2,0.9c0.1,0.3,0.1,0.2,0.2,0.5c0.2,0.3,0.2,0.3,0.2,0.5
				c0,0,0,0.1,0,0.1c0,0-0.1-0.2-0.2-0.2c-0.1,0-0.2-0.1-0.2-0.1c0,0,0,0,0,0.1c0.1,0.3,0.1,0.4,0.1,0.4L46,60c0,0.1-0.2,0.1,0,0.1
				c0.1,0,0.1,0,0.1,0c0,0,0,0,0,0c0,0,0,0,0,0c0,0,0,0,0,0.1c0,0.2-0.2,0.2-0.1,0.3c0,0,0,0,0,0c0,0,0,0,0,0c0,0,0,0.1,0.1,0.1
				c0.2,0.4,0.1,0.3,0.2,0.5c0,0.1,0,0.1,0,0.1h0c0,0,0,0,0,0c0,0,0,0,0.1,0.1c0.2,0.3,0.3,0.3,0.3,0.3l0.3,0.2c0,0,0,0,0,0
				c0,0,0.1,0,0.1,0.1c0,0.1,0,0.1,0,0.1c0,0,0,0,0,0c0,0,0,0,0,0.1c0.1,0.2,0,0.2,0.3,0.3c0.1,0,0.1,0,0.1,0.1c0,0,0,0,0.2,0.1
				c0.4,0.2,0.6,0.3,0.6,0.3s-0.2,0,0.1,0h0.1h0h0.2c0.3,0,0.4,0,0.5,0c0,0,0.1,0,0.1,0c0.1,0,0.2-0.1,0-0.2
				c-0.1-0.1-0.1-0.1-0.3-0.2c-0.1-0.1-0.1-0.1-0.3-0.2c-0.2-0.1-0.2-0.3-0.3-0.3c0,0,0,0-0.1,0c-0.1,0.1-0.1,0.1-0.1,0.1
				c0,0,0,0-0.1,0l-0.2-0.1c0,0-0.2-0.1,0-0.2c0,0,0.1,0,0.1,0c0,0,0.1,0,0.1,0c0,0,0,0,0.1,0c0,0,0,0,0-0.1
				c-0.1-0.3-0.1-0.1-0.1-0.3c0-0.2,0.1-0.1,0.1-0.3c0,0,0,0,0,0c0,0,0,0,0,0c0,0,0,0,0,0c0,0,0,0,0-0.2c0.1-0.4,0.1-0.2,0.1-0.4
				c-0.1-0.2-0.1-0.1-0.3-0.3c-0.1-0.2-0.2-0.2-0.2-0.3c0,0,0,0-0.1,0c0,0,0,0-0.1,0c0,0,0,0,0,0c0,0,0,0,0.1-0.1
				c0.3-0.3,0.2-0.1,0.3-0.3c0.1-0.2,0.1-0.2,0.1-0.4c0-0.3,0-0.2-0.1-0.4c-0.1-0.1-0.1-0.1-0.1-0.1c0,0,0,0,0,0c0,0,0,0,0,0
				c0,0,0,0,0.1-0.1c0.1-0.2,0.2-0.2,0.3-0.3c0.1,0,0.1-0.1,0.1-0.2c0-0.1,0-0.3,0.2-0.3c0.2,0,0.3,0.2,0.4,0.2c0.1,0,0.2,0,0.3-0.2
				c0.4-0.4,0.4-0.2,0.4-0.5c0-0.3,0.1-0.2-0.1-0.5c-0.1-0.2-0.2,0-0.1-0.2c0.1-0.2,0.4-0.1,0.8-0.2c0.4-0.1,0.6-0.5,0.7-0.6
				c0.1-0.1,0.3-0.3,0.3-0.4c0.1-0.1,0.1-0.2,0.2-0.4c0.1-0.2-0.2-0.1,0.1-0.3c0.2-0.2,0.2,0,0.2-0.2c0.1-0.2,0.1,0,0.1-0.4
				c-0.1-0.4-0.1-0.6,0.4-1c0.5-0.4,0.6-0.4,0.9-0.4c0.3,0,0.6-0.3,0.7-0.6c0.1-0.2,0.2-0.2,0.4-0.6c0.2-0.4,0.2-0.5,0.2-0.9
				c0-0.4-0.2-0.6,0.1-1.1c0.2-0.5,1.1-1.2,1.1-1.7c0.1-0.5,0.5-0.6-0.1-0.9c-0.6-0.2-0.5-0.2-1.1-0.5c-0.6-0.3-0.3-0.3-0.9-0.4
				c-0.7-0.2-0.5,0-1-0.3c-0.5-0.3-0.6,0-1-0.4c-0.4-0.3-0.6-0.3-0.7-0.6c-0.1-0.3,0-0.4-0.3-0.7c-0.3-0.3-1-0.6-1.4-0.6h-0.2h0
				c-0.1,0-0.1,0-0.6-0.5c-0.6-0.6-0.2-0.4-0.9-0.7c-0.7-0.3-0.8-0.3-1.4-0.3c-0.2,0-0.3,0-0.4,0c0,0-0.1,0-0.1,0
				c-0.1,0-0.1,0-0.2-0.2c-0.3-0.3,0.2-0.3-0.3-0.3c-0.3,0-0.2-0.1-0.3-0.1c0,0-0.1,0-0.2,0.1c-0.3,0.1-0.3,0.3-0.4,0.3
				c0,0,0,0-0.1-0.1c-0.1-0.2,0.1-0.4,0-0.4c0,0-0.1,0-0.1,0.1c-0.3,0.2-0.6,0.4-0.6,0.4s-0.7,0.1-1,0.6l0,0c0,0-0.2,0-0.4-0.2
				c-0.2-0.2-0.1-0.2-0.4-0.2c-0.2,0-0.3,0.4-0.5,0.4c0,0-0.1,0-0.1,0c-0.1,0-0.2-0.1-0.3-0.4C41,41.6,41,41.5,41,41.5
				s-0.2-0.6,0-0.8c0.1-0.2-0.1-0.4-0.1-0.6c0-0.1-0.3-0.2-0.6-0.2c-0.1,0-0.1,0-0.2,0c-0.2,0-0.3,0.1-0.4,0.1
				c-0.1,0-0.2-0.1-0.3-0.2c-0.1-0.3,0.3-0.7,0.6-1.1c0.3-0.4,0.2-0.4-0.2-0.4c-0.4,0-0.6,0.2-0.8,0.4c-0.2,0.3-0.3,0.4-0.7,0.5
				c-0.2,0-0.3,0-0.5,0c-0.2,0-0.4,0-0.5-0.1c-0.3-0.1-0.4-0.6-0.5-1.1c-0.1-0.5,0.1-0.7,0.3-1c0.2-0.3,0.1-0.4,0.2-0.8
				c0.1-0.4,0.4-0.4,1.1-0.7c0.2-0.1,0.4-0.1,0.4-0.1c0.1,0,0,0.1,0.1,0.2c0.2,0.1,0.3,0.1,0.6,0.2c0,0,0,0,0.1,0
				c0.2,0,0.2-0.1,0.2-0.1v-0.3c0-0.1,0-0.1,0.1-0.1c0.1,0,0.2,0,0.3,0c0.3,0,0.5,0,0.8,0.1c0.3,0,0.6,0.1,0.6,0.1s0.1,0.2,0.1,0.8
				c0,0.4,0.2,0.6,0.4,0.6c0.1,0,0.1,0,0.2,0c0.3-0.1,0.1-0.4,0.1-0.8c0-0.4-0.1-0.6,0-1c0.1-0.4,0.2-0.3,0.7-0.6
				c0.4-0.2,0.4-0.3,0.8-0.5c0.3-0.2,0.5-0.2,0.6-0.4c0.1-0.2,0-0.3,0-0.5c-0.1-0.2-0.1-0.2,0-0.4c0-0.1,0-0.1,0.1-0.1
				c0.1,0,0.1,0.1,0.3,0.1c0.1,0,0.1,0,0.1,0c0.1,0,0-0.1,0.2-0.2c0.3-0.2,0.3-0.4,0.7-0.6c0.3-0.3,0.4-0.3,0.9-0.6
				c0.4-0.3,0.5-0.5,0.8-0.6c0.1,0,0.1,0,0.1,0c0.1,0,0.1,0.1,0.3,0.1c0.1,0,0.2,0,0.3,0c0.2,0,0.3,0,0.5-0.1c0,0,0.1,0,0.1,0
				c0.1,0,0.2,0,0.2,0c0.1,0,0.2,0,0.2,0c0.1,0,0.2,0,0.2,0c0.4-0.1,0.5-0.3,0.8-0.5c0.1-0.1,0-0.2-0.2-0.2c-0.1,0-0.3,0-0.3,0.1
				c-0.1,0-0.1,0.1-0.2,0.1c-0.2,0-0.5-0.1-0.6-0.3c-0.1-0.2,0.1-0.3,0.4-0.4c0.1-0.1,0-0.1-0.3-0.1c-0.2,0-0.3,0-0.4,0.1
				c-0.1,0-0.2,0.1-0.3,0.1c-0.1,0-0.2,0-0.2-0.1c0.1-0.1,0.5-0.3,0.8-0.5c0.1-0.1,0.2-0.1,0.3-0.1c0.2,0,0.3,0.1,0.6,0.1
				c0.4,0,0.5,0,0.8,0c0.4,0,0.3-0.2,0.6-0.3c0.1,0,0.1-0.1,0.2-0.1c0.1,0,0.1,0.1,0.1,0.3c0,0.3-0.2,0.3-0.5,0.5
				c-0.3,0.2-0.3,0.3-0.4,0.4c0,0.1,0.1,0.1,0.3,0.1c0.2,0,0.5,0,0.7,0c0.4,0,0.4,0.1,0.5,0.1c0,0,0,0,0.1,0c0.2,0,0.1-0.3-0.1-0.6
				c-0.2-0.2-0.4-0.2-0.4-0.4c0-0.2-0.1-0.6,0.2-0.7c0.3-0.1,0-0.3-0.1-0.6c-0.1-0.3-0.7-0.3-0.9-0.6c-0.2-0.3,0-0.2,0.1-0.6
				c0.1-0.3-0.1-0.4-0.2-0.6c0-0.1-0.1-0.1-0.1-0.1c-0.1,0-0.2,0.2-0.5,0.4c-0.2,0.2-0.3,0.2-0.5,0.2c-0.1,0-0.1,0-0.2,0
				c-0.3,0,0-0.1,0.1-0.4c0.1-0.3-0.3-0.7-0.8-0.8c-0.3,0-0.5-0.1-0.6-0.1c-0.1,0-0.2,0-0.3,0.2c-0.2,0.2-0.2,0.4-0.6,0.8
				c-0.3,0.3,0,0.3-0.2,0.9c-0.1,0.3-0.3,0.4-0.4,0.4c0,0-0.1,0-0.1,0c-0.1,0-0.2,0-0.3,0.1c-0.3,0.2-0.2,0.4-0.4,0.9
				c-0.1,0.2-0.2,0.3-0.3,0.3c-0.2,0-0.4-0.1-0.5-0.3c-0.2-0.2,0.1-0.7,0.3-0.9c0.1-0.2-0.1-0.2-0.3-0.2c0,0-0.1,0-0.1,0
				c-0.1,0-0.1,0-0.2,0c-0.4,0-0.6-0.3-0.9-0.4c-0.3-0.1-0.4-0.2-0.6-0.4c-0.2-0.2-0.1-0.2,0.1-0.6c0.1-0.3,0.2-0.2,0.7-0.5
				c0.5-0.3,0.7-0.2,1.3-0.4c0.6-0.2,0.8-0.5,1.2-0.6c0.4-0.2,0.1-0.2,0.1-0.4c0-0.2,0.1-0.2,0.3-0.4c0.3-0.2-0.1-0.3-0.3-0.3
				c-0.2,0-0.2,0-0.3-0.3c-0.1-0.3,0-0.3,0.2-0.4c0.2-0.2,0.2-0.1,0.7-0.3c0.1,0,0.2-0.1,0.2-0.1c0,0-0.2,0.1-0.1,0.4
				c0.1,0.3,0,0,0.1,0.4c0,0.2,0.1,0.2,0.1,0.2c0,0,0,0,0,0c0,0,0,0,0,0.1c-0.1,0.3-0.2,0.2-0.5,0.3c-0.3,0.2-0.1,0.1-0.3,0.4
				c0,0.1,0,0.1,0,0.1c0.1,0,0.3-0.1,0.5-0.1c0.3,0,0.2,0,0.5-0.1c0.2,0,0.2-0.2,0.3-0.3c0.1-0.1,0.1-0.2,0.1-0.5
				c0-0.1,0.1-0.1,0.2-0.1c0.1,0,0.2,0,0.4,0c0.4,0,0.5,0,0.8,0.1c0.3,0.1,0.4,0.2,0.6,0.6c0.2,0.3-0.2,0.2-0.7,0.5
				c-0.2,0.1-0.2,0.1-0.3,0.1c0,0-0.1,0-0.1,0c0,0-0.1,0-0.2,0c0,0,0,0-0.1,0c-0.4,0.1-0.5,0.2-0.4,0.4c0,0.1,0,0.1,0.1,0.1
				c0.1,0,0.3-0.1,0.6-0.1c0.5,0,0.2,0.1,0.4,0.1c0.2,0.1,0.2,0.1,0.4,0.3c0.1,0.1,0.1,0.1,0.2,0.1c0.1,0,0.2,0,0.4-0.1
				c0.5-0.1,0,0,0.1-0.3c0-0.1,0-0.2,0-0.2c0,0,0,0.2,0.1,0.2C50.8,25,51,25,51.3,25c0.3,0,0.2-0.2,0.3-0.3c0-0.2-0.3-0.2-0.5-0.5
				c-0.1-0.1,0-0.1,0-0.1c0.1,0,0.5,0.2,0.6,0.2c0.2,0,0.3,0,0.5-0.1c0.2-0.1,0-0.2-0.1-0.5c-0.1-0.1-0.2-0.1-0.3-0.1h-0.1
				c0,0-0.1,0-0.1,0c-0.1,0-0.1,0-0.2,0c-0.4-0.1-0.1-0.2-0.1-0.5c0-0.2-0.3-0.2-0.5-0.5c-0.2-0.3-0.6-0.2-1.2-0.4
				c-0.6-0.2-0.4-0.2-0.8-0.2c-0.4,0-1,0.1-1.3,0.2c0,0-0.1,0-0.1,0c-0.1,0-0.2-0.1-0.2-0.1c-0.1-0.1-0.1-0.1-0.2-0.1c0,0,0,0,0,0
				c-0.2,0.1-0.2,0.1-0.5,0.2c-0.2,0.1-0.3,0.1-0.6,0.1c-0.3,0,0,0-0.1-0.3c0-0.1,0-0.1-0.1-0.1c0,0,0,0.1-0.2,0.2c-0.3,0,0,0-0.4,0
				c-0.4,0-0.4,0.1-0.6,0.3c-0.1,0.2,0.1,0.2,0.3,0.2c0,0,0.1,0,0.1,0c0.2,0,0.3-0.1,0.5-0.1c0.2,0,0,0.2-0.2,0.3
				c-0.2,0.1,0,0.1,0,0.5s-0.3,0.2-0.6,0.4c-0.1,0-0.1,0.1-0.1,0.1c-0.1,0-0.1-0.2,0-0.3c0.1-0.1,0.1-0.2,0.2-0.4c0-0.1,0-0.1,0-0.1
				c-0.1,0-0.3,0.2-0.5,0.5c-0.1,0.1-0.2,0.2-0.2,0.2c0,0,0,0,0,0c0,0,0,0-0.1,0c0,0-0.1,0-0.2,0c-0.2,0.1-0.3,0.1-0.4,0.1
				c-0.1,0-0.2,0-0.5,0c-0.5,0-0.3-0.1-0.2-0.4c0-0.1,0.1-0.2,0.2-0.2c0,0,0.1,0,0.2,0c0.1,0,0.1,0,0.2,0c0.1,0,0.1,0,0.2,0
				c0.1,0,0.2,0,0.3,0c0.1,0,0.1,0,0.3,0c0.3,0,0.2-0.2-0.2-0.2c-0.4-0.1-0.2-0.1-0.2-0.4c-0.1-0.3,0.4-0.1,0.7-0.3
				c0.1-0.1,0.1-0.1,0-0.1c-0.1,0-0.4,0.1-0.7,0.1c-0.4,0-0.1,0-0.5,0c-0.4,0-0.4,0-1.3,0.1c-0.3,0-0.4,0-0.5,0
				c-0.1,0,0.1-0.1-0.1-0.1c-0.3,0,0.1-0.2,0.5-0.4c0.3-0.1,0.1-0.2-0.3-0.2C41.3,21.8,41.2,21.8,41,21.8 M43.8,21.6
				c-0.3,0-0.6-0.1-0.6-0.1s-0.7,0-0.8,0.2v0.1c0.1,0.2,0.2,0.3,0.4,0.3H43c0,0,0.1,0,0.1,0c0.4-0.1,0.5-0.2,0.8-0.2
				c0.2,0,0.5,0.1,0.7,0.1c0.1,0,0.2,0,0.2-0.1c0.1-0.3-0.2-0.3-0.4-0.3C44.1,21.5,44.2,21.6,43.8,21.6 M57,20
				c-0.8,0.2-0.9,0.3-1.3,0.3c-0.3,0-0.5,0.2-0.7,0.2c0,0-0.1,0-0.1,0c-0.2-0.1-0.4-0.2,0.1-0.3c0.4,0,0.6-0.2,0-0.2
				c-0.4,0-0.5-0.1-0.7-0.1c-0.1,0-0.3,0-0.5,0c-0.2,0-0.4,0-0.6,0c-0.1,0-0.2,0-0.3,0c-0.3,0-0.7,0-1.2,0c-0.9,0.1-1,0.2-1.4,0.2
				c-0.4,0-1,0.1-1,0.1c-0.2,0-0.5-0.1-0.7-0.1c-0.1,0-0.2,0-0.2,0.1c-0.2,0.2-0.7,0.3-0.4,0.5c0.2,0.1,0.3,0.1,0.4,0.1
				c0.1,0,0.2,0,0.4-0.1c0.4-0.1,0.3-0.2,0.7-0.2c0.1,0,0.4,0,0.6,0c0.2,0,0.4,0,0.1,0.2c-0.5,0.4-0.6,0.5-1.1,0.6
				c-0.4,0.1-0.4,0.2-0.6,0.2c0,0-0.1,0-0.2,0c-0.3,0-0.5-0.2-0.6-0.2c0,0-0.1,0,0,0.1c0.1,0.3-0.1,0.4,0.4,0.4c0.5,0,0.5,0,0.9,0
				c0.2,0,0.3,0,0.4,0c0.1,0,0.1,0,0.4-0.1c0.4-0.2,0.2-0.1,0.8-0.4c0.6-0.3,0.8-0.4,1.2-0.4c0.4-0.1,0.6-0.2,1.2-0.3
				c0.4-0.1,0.6-0.2,0.9-0.2c0.1,0,0.2,0,0.3,0.1c0.4,0.2,0.7,0.4,0.1,0.4c-0.1,0-0.2,0-0.3,0c-0.1,0-0.3,0-0.4,0
				c-0.1,0-0.3,0-0.4,0c-0.3,0-0.4,0-0.5,0.2c-0.1,0.4-1,0.4,0.3,0.5c0.2,0,0.3,0,0.5,0c0.2,0,0.4,0,0.5,0c0.1,0,0.3,0,0.4,0
				c0.3,0,0.5,0,0.6,0.2c0.3,0.4,0.4,0.3,0.3,0.6c-0.1,0.3,0,0.3,0.1,0.5c0.1,0.2,0.7,0.3,0.2,0.5c-0.5,0.2-0.9-0.2-0.9,0.7
				c0,0.9,0.1,1.4,0.9,1.6c0.3,0.1,0.5,0.1,0.6,0.2h0.1c0.1,0,0.2-0.1,0.3-0.3c0.4-0.4,0.1-0.8,1.1-1.1c0.9-0.3,1.1-0.3,1.7-0.5
				s0.4-0.4,1.3-0.5c1-0.1,0.8,0.1,1.2-0.3c0.4-0.4,0.2,0,0.6-0.6c0.2-0.3,0.5-0.4,0.6-0.5c-1.5-0.9-3.2-1.7-4.9-2.2
				C57.7,19.8,57.3,19.9,57,20"/>
		</defs>
		<clipPath id="SVGID_4_">
			<use xlink:href="#SVGID_3_"  style="overflow:visible;"/>
		</clipPath>
		
			<radialGradient id="SVGID_5_" cx="-567.695" cy="945.6879" r="0.8558" gradientTransform="matrix(36.9327 0 0 37.0623 21005.9062 -35020.5391)" gradientUnits="userSpaceOnUse">
			<stop  offset="0" style="stop-color:#E3E2E2"/>
			<stop  offset="0.25" style="stop-color:#E3E2E2"/>
			<stop  offset="0.4071" style="stop-color:#DFDFDF"/>
			<stop  offset="0.5685" style="stop-color:#D3D7D4"/>
			<stop  offset="0.7317" style="stop-color:#BEC9C3"/>
			<stop  offset="0.8953" style="stop-color:#A1B6AC"/>
			<stop  offset="1" style="stop-color:#8BA799"/>
		</radialGradient>
		<rect x="31.3" y="19.8" class="st6" width="43" height="43.2"/>
	</g>
	<path class="st7" d="M46.4,38.2c-0.6,0.1-0.9,0.2-0.9,1v3.9c0,0.7-0.2,1.8-0.7,2.3c-0.6,0.7-1.6,0.9-2.3,0.9
		c-0.5,0-1.6-0.1-2.4-0.8c-0.5-0.5-0.8-0.9-0.8-2.2v-4c0-1-0.3-1-1-1.1v-0.3h3.8v0.3c-0.8,0-1.1,0.1-1.1,1.1v4
		c0,0.7,0.1,2.4,1.8,2.4c2,0,2.1-1.9,2.1-2.6v-3.7c0-0.7-0.2-1.2-1.2-1.2v-0.3h2.6V38.2z"/>
	<path class="st7" d="M61.9,40.2c-0.2-0.9-0.8-2.3-2.2-2.3c-0.6,0-1.2,0.4-1.2,1.2c0,0.7,0.2,0.9,1.2,1.4l1.7,0.9
		c0.4,0.2,1.3,0.8,1.3,2.1c0,1.1-0.7,2.4-2.9,2.4c-1.1,0-1.5-0.4-1.9-0.4c-0.2,0-0.3,0.2-0.3,0.4h-0.3l-1.3-3h0.2
		c0.3,0.9,1.9,2.6,3.6,2.6c1.4,0,1.5-1.2,1.5-1.4c0-0.8-0.5-1-1.3-1.3l-0.8-0.4c-2-1-2-1.9-2-2.4c0-0.7,0.4-2.4,2.6-2.4
		c0.9,0,0.9,0.3,1.3,0.3c0.4,0,0.5-0.3,0.5-0.4l0.2,0l0.4,2.6H61.9z"/>
	<path class="st8" d="M51.2,45.9H48v-0.2c0.5-0.1,0.8-0.1,0.8-0.8v-5.7c0-0.8-0.4-0.8-0.8-0.8v-0.4h2.3v6.8c0,0.8,0.4,0.8,0.9,0.8
		V45.9z"/>
	<path class="st8" d="M50.7,37.9c0,0,3.2-0.3,3.2,2c0,0.7,0,1.2-1.3,1.9c0,0,1.7,1.6,2.8,3.5c1.2,2,4,6.8,10.7,8.6
		c0,0-5.1,1.5-10.5-5.1c-1.7-2-3.2-6-4.9-6.6V42c0,0,1.7,0.2,1.7-2c0-2-1.7-1.8-1.7-1.8V37.9z"/>
	<path class="st7" d="M72.4,42c0-4.9-9.5-9-21.2-9c-11.7,0-21.2,4-21.2,9s9.5,9,21.2,9c1.6,0,3.1-0.1,4.6-0.2L55.2,50
		c-1.3,0.1-2.6,0.2-4,0.2c-9.9,0-17.9-3.7-17.9-8.2c0-4.5,8-8.2,17.9-8.2C61,33.8,69,37.5,69,42c0,3.1-3.7,5.8-9.2,7.2l0.8,0.9
		C67.6,48.6,72.4,45.5,72.4,42"/>
	<g>
		<g>
			<path class="st7" d="M70.7,36c-0.1,0-0.2,0-0.3-0.1c-0.1,0-0.2-0.1-0.3-0.2s-0.1-0.2-0.2-0.3c0-0.1-0.1-0.2-0.1-0.3
				c0-0.1,0-0.2,0.1-0.3c0-0.1,0.1-0.2,0.2-0.3s0.2-0.1,0.3-0.2c0.1,0,0.2-0.1,0.3-0.1s0.2,0,0.3,0.1c0.1,0,0.2,0.1,0.3,0.2
				s0.1,0.2,0.2,0.3c0,0.1,0.1,0.2,0.1,0.3c0,0.1,0,0.2-0.1,0.3c0,0.1-0.1,0.2-0.2,0.3s-0.2,0.1-0.3,0.2C71,36,70.8,36,70.7,36z
				 M70.7,34.3c-0.4,0-0.8,0.3-0.8,0.8c0,0.4,0.3,0.8,0.8,0.8s0.8-0.3,0.8-0.8C71.5,34.7,71.2,34.3,70.7,34.3z"/>
		</g>
	</g>
	<g>
		<path class="st7" d="M71.2,35.5c-0.1-0.1-0.1-0.2-0.2-0.3c0,0,0,0,0,0c0,0,0,0,0,0c0,0,0.1,0,0.1,0c0.1,0,0.1-0.1,0.1-0.2
			c0-0.1-0.1-0.3-0.2-0.3c0,0-0.1,0-0.2,0c-0.1,0-0.2,0-0.2,0c-0.1,0-0.1,0-0.2,0c0,0,0,0,0,0c0,0,0,0,0,0c0,0.3,0,0.5,0,0.8
			c0,0,0,0.1,0,0.1c0,0,0,0,0,0c0,0,0.1,0,0.1,0c0,0,0,0,0,0c0-0.1,0-0.3,0-0.4c0,0,0.1,0,0.1,0c0,0,0,0,0.1,0c0,0,0.1,0,0.1,0.1
			c0.1,0.1,0.1,0.2,0.2,0.3c0,0,0,0,0,0C71.1,35.6,71.1,35.6,71.2,35.5C71.2,35.6,71.2,35.6,71.2,35.5z M70.9,35c-0.1,0-0.1,0-0.2,0
			c-0.1,0-0.1,0-0.2,0c0-0.1,0-0.2,0-0.2c0.1,0,0.2,0,0.4,0c0.1,0,0.1,0,0.1,0.1C71,35,70.9,35,70.9,35z"/>
	</g>
	<rect x="3.2" y="3.9" class="st9" width="154.1" height="76.5"/>
	<line class="st9" x1="99.5" y1="3.9" x2="99.5" y2="80.4"/>
</g>
</svg>
