<?xml version="1.0" encoding="utf-8"?>
<!-- Generator: Adobe Illustrator 25.0.1, SVG Export Plug-In . SVG Version: 6.00 Build 0)  -->
<svg version="1.1" id="Layer_1" xmlns="http://www.w3.org/2000/svg" xmlns:xlink="http://www.w3.org/1999/xlink" x="0px" y="0px"
	 viewBox="0 0 268 54.7" style="enable-background:new 0 0 268 54.7;" xml:space="preserve">
<style type="text/css">
	.st0{fill:#17479D;}
	.st1{fill:#EC1C24;}
	.st2{fill:#626366;}
</style>
<path class="st0" d="M31,16.4c2.1-0.8,4.1-1.1,6.2-1.1c4,0,6.7,1.1,8.1,3.3c1.4,2.2,1.6,5.4,0.4,9.6l-6,22.4h-13l5.6-20.8
	c0.4-1.5,0.3-2.7-0.2-3.6c-0.5-0.9-1.5-1.3-2.9-1.3c-1.6,0-3.1,0.5-4.4,1.6c-1.3,1-2.1,2.3-2.5,3.9l-5.4,20.3h-13L16.6,3.1h13
	l-4.4,16.5C26.9,18.2,28.9,17.1,31,16.4"/>
<path class="st1" d="M75.3,16.3H60.1L47.6,27.6c-0.1,0.3-0.2,0.7-0.3,1.1l-3.5,13.2l3.6-2.8l4.1,11.9h14.8l-7.6-20.6L75.3,16.3z"/>
<path class="st1" d="M37.2,13.5c4.6,0,7.8,1.4,9.6,4.1c0.5,0.8,0.9,1.8,1.2,2.8l4.6-17.2h-13l-2.7,10.2C36.9,13.5,37,13.5,37.2,13.5
	"/>
<polygon class="st0" points="92.6,17.4 92.6,34.1 90,34.1 90,27 82.8,27 82.8,34.1 80.2,34.1 80.2,17.4 82.8,17.4 82.8,24.4 
	90,24.4 90,17.4 "/>
<polygon class="st0" points="104.7,34.1 98.5,26 98.5,34.1 95.9,34.1 95.9,17.4 98.5,17.4 98.5,25.4 104.2,17.4 107.3,17.4 
	101.3,25.6 107.9,34.1 "/>
<polygon class="st0" points="118.5,19.9 118.5,24.2 124.8,24.2 124.8,26.9 118.5,26.9 118.5,31.5 125.8,31.5 125.8,34.1 115.9,34.1 
	115.9,17.4 125.8,17.4 125.8,19.9 "/>
<polygon class="st0" points="144.9,17 144.9,34.1 142.3,34.1 142.3,24.8 136.8,33.8 136.7,33.8 131.2,24.8 131.2,34.1 128.5,34.1 
	128.5,17 128.7,17 136.7,29.2 144.7,17 "/>
<path class="st0" d="M148.1,17.4h5.6c3.2,0,5.9,2.5,5.9,5.5c0,3-2.6,5.4-5.9,5.4h-3v5.8h-2.6V17.4z M157,22.9c0-1.6-1.5-2.9-3.3-2.9
	h-3v5.7l3,0C155.5,25.7,157,24.4,157,22.9"/>
<polygon class="st0" points="171.8,31.5 171.8,34.1 161.7,34.1 161.7,17.4 164.3,17.4 164.3,31.5 "/>
<path class="st0" d="M172.4,25.7c0-4.8,3.9-8.7,8.6-8.7c4.8,0,8.7,3.9,8.7,8.7c0,4.7-3.9,8.6-8.7,8.6
	C176.3,34.4,172.4,30.5,172.4,25.7 M187,25.7c0-3.3-2.7-6-6-6c-3.3,0-6,2.7-6,6c0,3.3,2.7,6,6,6C184.3,31.7,187,29,187,25.7"/>
<polygon class="st0" points="194.4,26.9 188.8,17.4 191.8,17.4 195.7,24 199.6,17.4 202.5,17.4 197,26.9 197,34.1 194.4,34.1 "/>
<polygon class="st0" points="220.8,17 220.8,34.1 218.2,34.1 218.2,24.8 212.6,33.8 212.6,33.8 207,24.8 207,34.1 204.4,34.1 
	204.4,17 204.6,17 212.6,29.2 220.6,17 "/>
<polygon class="st0" points="226.6,19.9 226.6,24.2 233,24.2 233,26.9 226.6,26.9 226.6,31.5 234,31.5 234,34.1 224,34.1 224,17.4 
	234,17.4 234,19.9 "/>
<polygon class="st0" points="250.1,17.3 250.1,34.4 250,34.4 239.3,23.2 239.3,34.1 236.7,34.1 236.7,17.1 236.8,17.1 247.5,28.2 
	247.5,17.3 "/>
<polygon class="st0" points="263.8,20 259.3,20 259.3,34.1 256.7,34.1 256.7,20 252.2,20 252.2,17.4 263.8,17.4 "/>
<path class="st2" d="M80.1,49.3l1-0.7c0.4,0.7,1.1,1,1.9,1c0.9,0,1.7-0.5,1.7-1.1c0-0.8-1.1-1.2-2.1-1.7c-1-0.4-2.1-0.9-2.1-2.3
	c0-1.4,1.2-2.3,2.7-2.3c1.2,0,2.1,0.6,2.4,1.5l-1,0.7c-0.3-0.6-0.8-0.9-1.4-0.9c-0.8,0-1.4,0.5-1.4,1.1c0,0.7,0.8,0.9,1.8,1.3
	c1.3,0.6,2.4,1.2,2.4,2.5c0,1.5-1.3,2.4-3,2.4C81.7,51,80.6,50.3,80.1,49.3"/>
<polygon class="st2" points="90,43.7 90,45.9 93.2,45.9 93.2,47.2 90,47.2 90,49.5 93.7,49.5 93.7,50.8 88.7,50.8 88.7,42.4 
	93.7,42.4 93.7,43.7 "/>
<path class="st2" d="M101.2,50.8L99,47.6h-1v3.2h-1.3l0-8.4h2.6c1.6,0,2.8,1.2,2.8,2.7c0,1.1-0.7,2-1.7,2.3l2.4,3.3H101.2z
	 M99.3,46.5c0.8,0,1.4-0.6,1.4-1.4c0-0.8-0.7-1.4-1.4-1.4h-1.3v2.7H99.3z"/>
<polygon class="st2" points="111.8,42.4 107.9,51 107.8,51 104,42.4 105.4,42.4 107.9,48.1 110.4,42.4 "/>
<rect x="114.3" y="42.4" class="st2" width="1.3" height="8.4"/>
<path class="st2" d="M118.4,46.6c0-2.4,2-4.3,4.3-4.3c1.1,0,2.1,0.5,2.9,1.3l-0.8,1c-0.6-0.6-1.4-1-2.2-1c-1.5,0-3,1.3-3,3
	c0,1.7,1.5,3,3,3c0.9,0,1.6-0.4,2.2-1l0.8,1.1c-0.7,0.7-1.6,1.3-2.9,1.3C120.3,50.9,118.4,49,118.4,46.6"/>
<polygon class="st2" points="129.5,43.7 129.5,45.9 132.7,45.9 132.7,47.2 129.5,47.2 129.5,49.5 133.2,49.5 133.2,50.8 128.2,50.8 
	128.2,42.4 133.2,42.4 133.2,43.7 "/>
<path class="st2" d="M135.6,49.3l1-0.7c0.4,0.7,1.1,1,1.9,1c0.9,0,1.7-0.5,1.7-1.1c0-0.8-1.1-1.2-2.1-1.7c-1-0.4-2.1-0.9-2.1-2.3
	c0-1.4,1.2-2.3,2.7-2.3c1.2,0,2.1,0.6,2.4,1.5l-1,0.7c-0.3-0.6-0.8-0.9-1.4-0.9c-0.8,0-1.4,0.5-1.4,1.1c0,0.7,0.8,0.9,1.8,1.3
	c1.3,0.6,2.4,1.2,2.4,2.5c0,1.5-1.3,2.4-3,2.4C137.2,51,136.1,50.3,135.6,49.3"/>
<path class="st2" d="M148.9,42.4h2.8c1.6,0,2.9,1.2,2.9,2.8c0,1.5-1.3,2.7-2.9,2.7h-1.5v2.9h-1.3V42.4z M153.3,45.2
	c0-0.8-0.7-1.4-1.6-1.4h-1.5v2.9l1.5,0C152.6,46.6,153.3,46,153.3,45.2"/>
<path class="st2" d="M161.8,50.8l-2.3-3.2h-1v3.2h-1.3l0-8.4h2.6c1.6,0,2.8,1.2,2.8,2.7c0,1.1-0.7,2-1.7,2.3l2.4,3.3H161.8z
	 M159.9,46.5c0.8,0,1.4-0.6,1.4-1.4c0-0.8-0.7-1.4-1.4-1.4h-1.3v2.7H159.9z"/>
<rect x="165.9" y="42.4" class="st2" width="1.3" height="8.4"/>
<polygon class="st2" points="177.5,42.4 173.6,51 173.6,51 169.7,42.4 171.1,42.4 173.6,48.1 176.1,42.4 "/>
<path class="st2" d="M183.2,49.5h-4l-0.6,1.3h-1.4l3.9-8.5h0.1l3.9,8.5h-1.4L183.2,49.5z M182.7,48.4l-1.5-3.3l-1.5,3.3H182.7z"/>
<polygon class="st2" points="191.9,43.8 189.6,43.8 189.6,50.8 188.3,50.8 188.3,43.8 186.1,43.8 186.1,42.4 191.9,42.4 "/>
<polygon class="st2" points="195.8,43.7 195.8,45.9 199,45.9 199,47.2 195.8,47.2 195.8,49.5 199.5,49.5 199.5,50.8 194.5,50.8 
	194.5,42.4 199.5,42.4 199.5,43.7 "/>
<polygon class="st2" points="212.1,49.5 212.1,50.8 207.1,50.8 207.1,42.4 208.4,42.4 208.4,49.5 "/>
<rect x="214.8" y="42.4" class="st2" width="1.3" height="8.4"/>
<polygon class="st2" points="227.4,42.3 227.4,50.8 226.1,50.8 226.1,46.2 223.4,50.7 223.3,50.7 220.6,46.2 220.6,50.8 219.3,50.8 
	219.3,42.3 219.4,42.3 223.4,48.3 227.3,42.3 "/>
<rect x="230.6" y="42.4" class="st2" width="1.3" height="8.4"/>
<polygon class="st2" points="240.4,43.8 238.1,43.8 238.1,50.8 236.8,50.8 236.8,43.8 234.6,43.8 234.6,42.4 240.4,42.4 "/>
<polygon class="st2" points="244.3,43.7 244.3,45.9 247.4,45.9 247.4,47.2 244.3,47.2 244.3,49.5 248,49.5 248,50.8 243,50.8 
	243,42.4 248,42.4 248,43.7 "/>
<path class="st2" d="M257.6,46.6c0,2.6-1.7,4.2-4.3,4.2h-2.4v-8.4h2.4C255.9,42.4,257.6,44.1,257.6,46.6 M256.3,46.6
	c0-1.8-1.2-2.9-3-2.9h-1.1v5.8h1.1C255.1,49.5,256.3,48.4,256.3,46.6"/>
</svg>
