<?xml version="1.0" encoding="utf-8"?>
<!-- Generator: Adobe Illustrator 25.0.1, SVG Export Plug-In . SVG Version: 6.00 Build 0)  -->
<svg version="1.1" id="Layer_1" xmlns="http://www.w3.org/2000/svg" xmlns:xlink="http://www.w3.org/1999/xlink" x="0px" y="0px"
	 viewBox="0 0 300 150" style="enable-background:new 0 0 300 150;" xml:space="preserve">
<style type="text/css">
	.st0{fill:#17479D;}
	.st1{fill:#626366;}
	.st2{fill:#EC1C24;}
</style>
<path class="st0" d="M139.3,44.2c2.1-0.8,4.1-1.1,6.2-1.1c4,0,6.7,1.1,8.1,3.3c1.4,2.2,1.6,5.4,0.4,9.6l-6,22.4h-13l5.6-20.8
	c0.4-1.5,0.3-2.7-0.2-3.6c-0.5-0.9-1.5-1.3-2.9-1.3c-1.6,0-3.1,0.5-4.4,1.6c-1.3,1-2.1,2.3-2.5,3.9l-5.4,20.3h-13l12.7-47.5h13
	l-4.4,16.5C135.3,46,137.2,44.9,139.3,44.2"/>
<polygon class="st0" points="74.8,86.6 74.8,102.6 72.3,102.6 72.3,95.8 65.4,95.8 65.4,102.6 62.9,102.6 62.9,86.6 65.4,86.6 
	65.4,93.4 72.3,93.4 72.3,86.6 "/>
<polygon class="st0" points="86.2,102.6 80.3,94.9 80.3,102.6 77.8,102.6 77.8,86.6 80.3,86.6 80.3,94.3 85.8,86.6 88.7,86.6 
	83.1,94.5 89.3,102.6 "/>
<polygon class="st0" points="99.4,89.1 99.4,93.2 105.4,93.2 105.4,95.7 99.4,95.7 99.4,100.1 106.4,100.1 106.4,102.6 96.9,102.6 
	96.9,86.6 106.4,86.6 106.4,89.1 "/>
<polygon class="st0" points="124.6,86.3 124.6,102.6 122.1,102.6 122.1,93.7 116.8,102.3 116.8,102.3 111.5,93.7 111.5,102.6 
	109,102.6 109,86.3 109.2,86.3 116.8,97.9 124.4,86.3 "/>
<path class="st0" d="M127.6,86.6h5.3c3.1,0,5.6,2.4,5.6,5.3c0,2.8-2.5,5.2-5.6,5.2h-2.8v5.5h-2.5V86.6z M136.1,91.9
	c0-1.5-1.4-2.8-3.1-2.8h-2.8v5.4l2.8,0C134.7,94.6,136.1,93.4,136.1,91.9"/>
<polygon class="st0" points="150.2,100.1 150.2,102.6 140.6,102.6 140.6,86.6 143.1,86.6 143.1,100.1 "/>
<path class="st0" d="M150.7,94.6c0-4.5,3.7-8.3,8.2-8.3c4.5,0,8.2,3.7,8.2,8.3c0,4.5-3.7,8.2-8.3,8.2
	C154.4,102.8,150.7,99.1,150.7,94.6 M164.7,94.6c0-3.2-2.6-5.7-5.7-5.7s-5.7,2.6-5.7,5.7c0,3.1,2.6,5.7,5.7,5.7
	S164.7,97.7,164.7,94.6"/>
<polygon class="st0" points="171.7,95.8 166.4,86.6 169.2,86.6 172.9,93 176.7,86.6 179.5,86.6 174.2,95.8 174.2,102.6 171.7,102.6 
	"/>
<polygon class="st0" points="196.8,86.3 196.8,102.6 194.3,102.6 194.3,93.7 189.1,102.3 189,102.3 183.7,93.7 183.7,102.6 
	181.2,102.6 181.2,86.3 181.4,86.3 189,97.9 196.7,86.3 "/>
<polygon class="st0" points="202.4,89.1 202.4,93.2 208.4,93.2 208.4,95.7 202.4,95.7 202.4,100.1 209.4,100.1 209.4,102.6 
	199.9,102.6 199.9,86.6 209.4,86.6 209.4,89.1 "/>
<polygon class="st0" points="224.8,86.6 224.8,102.8 224.7,102.8 214.5,92.2 214.5,102.6 212,102.6 212,86.4 212.1,86.4 222.3,97 
	222.3,86.6 "/>
<polygon class="st0" points="237.8,89.1 233.6,89.1 233.6,102.6 231.1,102.6 231.1,89.1 226.8,89.1 226.8,86.6 237.8,86.6 "/>
<path class="st1" d="M62.9,117.1l1-0.7c0.4,0.6,1,1,1.8,1c0.9,0,1.6-0.4,1.6-1c0-0.7-1-1.2-2-1.6c-0.9-0.4-2-0.9-2-2.1
	c0-1.3,1.1-2.2,2.6-2.2c1.1,0,2,0.5,2.3,1.4l-0.9,0.6c-0.2-0.5-0.8-0.8-1.4-0.8c-0.7,0-1.3,0.5-1.3,1c0,0.6,0.7,0.8,1.7,1.3
	c1.3,0.6,2.2,1.2,2.2,2.4c0,1.4-1.2,2.3-2.8,2.3C64.3,118.6,63.3,118,62.9,117.1"/>
<polygon class="st1" points="72.3,111.8 72.3,113.8 75.3,113.8 75.3,115 72.3,115 72.3,117.2 75.8,117.2 75.8,118.5 71,118.5 
	71,110.5 75.8,110.5 75.8,111.8 "/>
<path class="st1" d="M82.9,118.5l-2.1-3.1h-1v3.1h-1.3l0-8H81c1.5,0,2.7,1.1,2.7,2.6c0,1-0.7,1.9-1.6,2.2l2.3,3.2H82.9z M81.1,114.4
	c0.8,0,1.4-0.6,1.4-1.3c0-0.7-0.6-1.3-1.4-1.3h-1.3v2.6H81.1z"/>
<polygon class="st1" points="93,110.5 89.3,118.7 89.2,118.7 85.6,110.5 86.9,110.5 89.3,115.9 91.7,110.5 "/>
<rect x="95.4" y="110.5" class="st1" width="1.3" height="8"/>
<path class="st1" d="M99.3,114.5c0-2.2,1.9-4.1,4.1-4.1c1,0,2,0.5,2.8,1.2l-0.7,1c-0.6-0.6-1.3-0.9-2.1-0.9c-1.4,0-2.8,1.3-2.8,2.9
	c0,1.6,1.4,2.8,2.8,2.8c0.8,0,1.5-0.4,2.1-0.9l0.7,1c-0.7,0.7-1.6,1.2-2.7,1.2C101.2,118.6,99.3,116.8,99.3,114.5"/>
<polygon class="st1" points="109.9,111.8 109.9,113.8 112.9,113.8 112.9,115 109.9,115 109.9,117.2 113.4,117.2 113.4,118.5 
	108.6,118.5 108.6,110.5 113.4,110.5 113.4,111.8 "/>
<path class="st1" d="M115.7,117.1l1-0.7c0.4,0.6,1,1,1.8,1c0.9,0,1.6-0.4,1.6-1c0-0.7-1-1.2-2-1.6c-0.9-0.4-2-0.9-2-2.1
	c0-1.3,1.1-2.2,2.6-2.2c1.1,0,2,0.5,2.3,1.4l-0.9,0.6c-0.2-0.5-0.8-0.8-1.4-0.8c-0.7,0-1.3,0.5-1.3,1c0,0.6,0.7,0.8,1.7,1.3
	c1.3,0.6,2.2,1.2,2.2,2.4c0,1.4-1.2,2.3-2.8,2.3C117.2,118.6,116.2,118,115.7,117.1"/>
<path class="st1" d="M128.4,110.5h2.7c1.5,0,2.8,1.2,2.8,2.6c0,1.4-1.3,2.6-2.8,2.6h-1.4v2.8h-1.3V110.5z M132.6,113.1
	c0-0.8-0.7-1.4-1.6-1.4h-1.4v2.7l1.4,0C131.9,114.5,132.6,113.9,132.6,113.1"/>
<path class="st1" d="M140.7,118.5l-2.1-3.1h-1v3.1h-1.3l0-8h2.5c1.5,0,2.7,1.1,2.7,2.6c0,1-0.7,1.9-1.6,2.2l2.3,3.2H140.7z
	 M138.8,114.4c0.8,0,1.4-0.6,1.4-1.3c0-0.7-0.6-1.3-1.4-1.3h-1.3v2.6H138.8z"/>
<rect x="144.6" y="110.5" class="st1" width="1.3" height="8"/>
<polygon class="st1" points="155.6,110.5 151.9,118.7 151.9,118.7 148.2,110.5 149.5,110.5 151.9,115.9 154.3,110.5 "/>
<path class="st1" d="M161,117.3h-3.8l-0.5,1.2h-1.4l3.7-8.1h0.1l3.7,8.1h-1.4L161,117.3z M160.5,116.2l-1.4-3.1l-1.4,3.1H160.5z"/>
<polygon class="st1" points="169.3,111.8 167.2,111.8 167.2,118.5 165.9,118.5 165.9,111.8 163.8,111.8 163.8,110.5 169.3,110.5 "/>
<polygon class="st1" points="173.1,111.8 173.1,113.8 176.1,113.8 176.1,115 173.1,115 173.1,117.2 176.5,117.2 176.5,118.5 
	171.8,118.5 171.8,110.5 176.5,110.5 176.5,111.8 "/>
<polygon class="st1" points="188.6,117.2 188.6,118.5 183.8,118.5 183.8,110.5 185.1,110.5 185.1,117.2 "/>
<rect x="191.1" y="110.5" class="st1" width="1.2" height="8"/>
<polygon class="st1" points="203.2,110.4 203.2,118.5 201.9,118.5 201.9,114.1 199.3,118.4 199.3,118.4 196.6,114.1 196.6,118.5 
	195.4,118.5 195.4,110.4 195.5,110.4 199.3,116.1 203.1,110.4 "/>
<rect x="206.2" y="110.5" class="st1" width="1.2" height="8"/>
<polygon class="st1" points="215.5,111.8 213.4,111.8 213.4,118.5 212.1,118.5 212.1,111.8 210,111.8 210,110.5 215.5,110.5 "/>
<polygon class="st1" points="219.2,111.8 219.2,113.8 222.2,113.8 222.2,115 219.2,115 219.2,117.2 222.7,117.2 222.7,118.5 
	218,118.5 218,110.5 222.7,110.5 222.7,111.8 "/>
<path class="st1" d="M231.9,114.5c0,2.4-1.6,4-4.1,4h-2.3v-8h2.3C230.3,110.5,231.9,112.1,231.9,114.5 M230.6,114.5
	c0-1.7-1.1-2.7-2.8-2.7h-1v5.5h1C229.5,117.2,230.6,116.2,230.6,114.5"/>
<path class="st2" d="M183.7,44.1h-15.2L156,55.4c-0.1,0.3-0.2,0.7-0.3,1.1l-3.5,13.2l3.6-2.8l4.1,11.9h14.8L167.1,58L183.7,44.1z"/>
<path class="st2" d="M145.5,41.3c4.6,0,7.8,1.4,9.6,4.1c0.5,0.8,0.9,1.8,1.2,2.8l4.6-17.2h-13l-2.7,10.2
	C145.2,41.3,145.4,41.3,145.5,41.3"/>
</svg>
