<svg id="Layer_1" enable-background="new 0 0 53 53" viewBox="0 0 53 53" xmlns="http://www.w3.org/2000/svg"><g><g><path d="m5.2683716 20.3246765c-.276001 0-.5.2240295-.5.5v12.28302c0 2.5610046 2.0839844 4.644989 4.6459961 4.644989h2.8799438c.2770386 0 .5-.2229919.5-.5 0-.276001-.2229614-.5-.5-.5h-2.8799438c-2.0100098 0-3.6459961-1.6349792-3.6459961-3.644989v-12.28302c0-.2759704-.2240601-.5-.5-.5"/></g><g><path d="m47.3550415 2.5629883h-18.1900024c-.2769775 0-.5.223999-.5.5 0 .2770081.2230225.5.5.5h18.1900024c1.3339844 0 2.4199219 1.0859985 2.4199219 2.4200134 0 1.3179932-1.0599365 2.3899841-2.3719482 2.4159851h-41.8049927c-1.3120117-.026001-2.3729858-1.0979919-2.3729858-2.4159851 0-1.3340149 1.0859985-2.4200134 2.4210205-2.4200134h19.1629638c.2770386 0 .5-.2229919.5-.5 0-.276001-.2229614-.5-.5-.5h-19.1629639c-1.8860474 0-3.4210205 1.5350037-3.4210205 3.4200134 0 1.5809937 1.0830078 2.9020081 2.5430298 3.2919922v7.7430115c0 .276001.223999.5.5.5.2769775 0 .5-.223999.5-.5v-7.6140137h41.1639404v23.70401c0 2.0100098-1.6339722 3.644989-3.6439819 3.644989h-11.7219849-10.4299926-5.0790405c-.2759399 0-.5.223999-.5.5s.2240601.5.5.5h3.9640503l-6.7210083 7.5400085c-.5490112.6140137-.8259888 1.4060059-.7789917 2.2279968.0469971.822998.4109497 1.5780029 1.0249634 2.1260071.5679932.5090027 1.2990112.7900085 2.0599976.7900085.8730469 0 1.710022-.3780212 2.2950439-1.0370178l8.4439697-9.4729919 8.4450073 9.473999c1.1329956 1.2669983 3.0859985 1.3789978 4.3530273.2479858.6199951-.5479736.9889526-1.3029785 1.0359497-2.1269836.0490112-.821991-.2269897-1.6140137-.7769775-2.2290039l-6.7210083-7.5400085h10.6069946c2.5599976 0 4.6439209-2.0839844 4.6439209-4.644989v-23.7630005c1.611084-.276001 2.8430176-1.6730042 2.8430176-3.3619995 0-1.8850098-1.5339356-3.4200134-3.4199219-3.4200134m-8.6989746 43.3959961c.3709717.4160156.5579834.9500122.5249634 1.5050049-.0319824.5559998-.2810059 1.0660095-.7000122 1.4360046-.0009766.0010071-.0009766.0010071-.0019531.0020142-.8560181.7659912-2.177002.690979-2.9430542-.1670227l-8.8179932-9.8919983c-.1889648-.2129822-.5559692-.2129822-.7459717 0l-8.8179932 9.8930054c-.7420044.8340149-2.1160278.9060059-2.94104.1660156-.8579712-.7660217-.9329834-2.0870056-.1669922-2.9430237l7.3140259-8.2059937h9.9819946z"/></g><g><path d="m24.4578857 31.3388672v1.7230225c0 .2769775.223999.5.5.5.2759399 0 .5-.2230225.5-.5v-1.7230225c0-.2759705-.2240601-.5-.5-.5-.2760009 0-.5.2240295-.5.5"/></g><g><path d="m29.9841919 27.5233765c-.276001 0-.5.2240295-.5.5v5.0810242c0 .276001.223999.5.5.5.2759399 0 .5-.223999.5-.5v-5.0810242c0-.2759705-.2240601-.5-.5-.5"/></g><g><path d="m34.5105591 29.5814819v3.6060181c0 .2770081.223999.5.5.5.2759399 0 .5-.2229919.5-.5v-3.6060181c0-.2759705-.2240601-.5-.5-.5-.276001 0-.5.2240296-.5.5"/></g><g><path d="m39.5378418 26.1430664v6.8770142c0 .2770081.223999.5.5.5.2759399 0 .5-.2229919.5-.5v-6.8770142c0-.2759705-.2240601-.5-.5-.5-.276001 0-.5.2240295-.5.5"/></g><g><path d="m33.7439575 25.1332703-2.7160034-1.822998c-.6360474-.4279785-1.4710083-.4049988-2.0790405.0559998l-6.0739746 4.5940247c-.2200317.1659851-.2640381.4799805-.0969849.6999817.0979614.1300049.2469482.1990051.3989868.1990051.1049805 0 .2109985-.0329895.3009644-.1010132l6.0750122-4.5939941c.2640381-.1990051.6409912-.2109985.9180298-.0249939l2.7149658 1.8240051c.6489868.4349976 1.5230103.3980103 2.1290283-.0970154l6.3670044-5.242981-.3770142 2.2319946c-.0460205.2720032.1370239.5299988.4099731.5759888.0280151.0050049.0549927.007019.0840454.007019.2389526 0 .4509888-.1719971.4920044-.4160156l.5999756-3.5529785c.0009766-.0050049-.0009766-.0110168-.0009766-.0170288.006958-.04599.0009766-.09198-.0050049-.13797-.0030518-.0210266-.0010376-.0430298-.007019-.0640259-.0150146-.052002-.0430298-.0999756-.0750122-.1470032-.0079956-.0109863-.0089722-.0239868-.0180054-.0339966-.0039673-.0049744-.0089722-.0059814-.0130005-.0109863-.0440063-.0500183-.0929565-.0899963-.1499634-.1180115-.0150146-.0069885-.0310059-.0079956-.0460205-.0139771-.0490112-.0180054-.0980225-.03302-.1480103-.0360107-.0059814-.0010071-.0100098-.0039978-.0159912-.0039978l-3.6010132-.1000061c-.2669678.0140076-.5050049.2099915-.5130005.4859924s.210022.506012.4860229.5140076l2.2669678.0629883-6.3689575 5.2430115c-.2650144.2149963-.6490477.2340087-.9379881.0409851"/></g><g><path d="m13.6043701 22.2027893c2.8569946 0 5.1820068-2.3240051 5.1820068-5.1809998 0-.0140076-.007019-.026001-.0080566-.0390015-.0219727-2.8410034-2.3299561-5.1459961-5.1709595-5.1500244-.0010376 0-.0020142 0-.0029907 0h-.0020141-.0009766c-.0010376 0-.0020142 0-.0030518 0-2.8579712.0040283-5.1829834 2.32901-5.1829834 5.1890259 0 2.8569947 2.328003 5.1809998 5.1890259 5.1809998m.5-9.3400268c1.9060059.230011 3.4199829 1.7490234 3.6479492 3.6590271h-3.6479492zm-1.0029907 0v4.1590271c0 .276001.223999.5.5.5h.0029907 4.1519775c-.2479858 2.0699768-2.0150146 3.6809998-4.1519775 3.6809998-2.3099976 0-4.1890259-1.8760071-4.1890259-4.1809998 0-2.1400147 1.6129761-3.9100037 3.6860352-4.1590271" fill="#f83908"/></g><g><path d="m18.00177 25.1478882h-8.7200317c-.276001 0-.5.2240295-.5.5 0 .276001.223999.5.5.5h8.7200317c.2759399 0 .5-.223999.5-.5 0-.2759705-.22406-.5-.5-.5" fill="#f83908"/></g><g><path d="m18.00177 28.8974609h-8.7200317c-.276001 0-.5.2240295-.5.5 0 .276001.223999.5.5.5h8.7200317c.2759399 0 .5-.223999.5-.5 0-.2759704-.22406-.5-.5-.5" fill="#f83908"/></g><g><path d="m18.00177 32.6469727h-8.7200317c-.276001 0-.5.2240295-.5.5 0 .276001.223999.5.5.5h8.7200317c.2759399 0 .5-.223999.5-.5 0-.2759705-.22406-.5-.5-.5" fill="#f83908"/></g></g></svg>