<svg id="Layer_1" enable-background="new 0 0 53 53" viewBox="0 0 53 53" xmlns="http://www.w3.org/2000/svg"><g><g><g><path d="m11.6616211 11.6914063c-.2763672 0-.5-.2236328-.5-.5v-6.6362305c0-.8271484.6728516-1.5 1.5-1.5h18.4335938c.2763672 0 .5.2236328.5.5s-.2236328.5-.5.5h-18.4335938c-.2753906 0-.5.2241211-.5.5v6.6362305c0 .2763671-.2236328.5-.5.5z"/></g></g><g><g><path d="m31.0317383 28.5649414h-9.2705078c-.8271484 0-1.5-.6728516-1.5-1.5v-2.7602539c0-.2758789-.2246094-.5-.5-.5h-1.2998047c-.8271484 0-1.5-.6728516-1.5-1.5v-2.2094727c0-.2758789-.2246094-.5-.5-.5h-3.7998047c-.8271484 0-1.5-.6728516-1.5-1.5v-3.3823242c0-.2763672.2236328-.5.5-.5s.5.2236328.5.5v3.3823242c0 .2758789.2246094.5.5.5h3.7998047c.8271484 0 1.5.6728516 1.5 1.5v2.2094727c0 .2758789.2246094.5.5.5h1.2998047c.8271484 0 1.5.6728516 1.5 1.5v2.7602539c0 .2758789.2246094.5.5.5h9.2705078c.2753906 0 .5-.2241211.5-.5v-2.7602539c0-.8271484.6728516-1.5 1.5-1.5h1.2998047c.2753906 0 .5-.2241211.5-.5v-2.2094727c0-.8271484.6728516-1.5 1.5-1.5h3.7998047c.2753906 0 .5-.2241211.5-.5v-13.540039c0-.2758789-.2246094-.5-.5-.5h-5.0224609c-.2763672 0-.5-.2236328-.5-.5s.2236328-.5.5-.5h5.0224609c.8271484 0 1.5.6728516 1.5 1.5v13.5400391c0 .8271484-.6728516 1.5-1.5 1.5h-3.7998047c-.2753906 0-.5.2241211-.5.5v2.2094727c0 .8271484-.6728516 1.5-1.5 1.5h-1.2998047c-.2753906 0-.5.2241211-.5.5v2.7602539c0 .8271483-.6728516 1.4999999-1.5 1.4999999z"/></g></g><g><g><path d="m26.3969727 41.9248047c-.2763672 0-.5-.2236328-.5-.5v-13.3598633c0-.2763672.2236328-.5.5-.5s.5.2236328.5.5v13.3598633c0 .2763672-.2236329.5-.5.5z"/></g></g><g><g><path d="m44.6577148 41.9248047c-.2763672 0-.5-.2236328-.5-.5v-3.8500977c0-1.7275391-1.40625-3.1333008-3.1337891-3.1333008h-22.9257812c-.2763672 0-.5-.2236328-.5-.5s.2236328-.5.5-.5h22.9257813c2.2792969 0 4.1337891 1.8540039 4.1337891 4.1333008v3.8500977c-.0000001.2763672-.2236329.5-.5000001.5z"/></g></g><g><g><path d="m8.1352539 41.9248047c-.2763672 0-.5-.2236328-.5-.5v-3.8500977c0-2.2792969 1.8544922-4.1333008 4.1337891-4.1333008h2.5429688c.2763672 0 .5.2236328.5.5s-.2236328.5-.5.5h-2.5429688c-1.7275391 0-3.1337891 1.4057617-3.1337891 3.1333008v3.8500977c0 .2763672-.2236328.5-.5.5z"/></g></g><g><g><path d="m26.4018555 49.9448242c-2.4970703 0-4.5205078-2.0229492-4.5205078-4.5097656 0-2.4916992 2.0185547-4.5102539 4.5-4.5102539 2.5068359 0 4.5302734 2.0234375 4.5302734 4.5102539s-2.0234375 4.5097656-4.5097656 4.5097656zm0-8.0200195c-1.9501953 0-3.5205078 1.5703125-3.5205078 3.5 0 1.9453125 1.5751953 3.5200195 3.5107422 3.5200195 1.9453125 0 3.5195313-1.574707 3.5195313-3.5097656-.0000001-1.9355469-1.5742189-3.5102539-3.5097657-3.5102539z" fill="#f83908"/></g></g><g><g><path d="m8.347168 49.9448242c-2.4960938 0-4.5195313-2.0229492-4.5195313-4.5097656 0-2.4916992 2.0185547-4.5102539 4.5-4.5102539 2.5058594 0 4.5292969 2.0234375 4.5292969 4.5102539s-2.0234375 4.5097656-4.5097656 4.5097656zm0-8.0200195c-1.9492188 0-3.5195313 1.5703125-3.5195313 3.5 0 1.9453125 1.5742188 3.5200195 3.5097656 3.5200195 1.9453125 0 3.5195313-1.574707 3.5195313-3.5097656 0-1.9355469-1.5742188-3.5102539-3.5097656-3.5102539z" fill="#f83908"/></g></g><g><g><path d="m44.6625977 49.9448242c-2.4960938 0-4.5195313-2.0229492-4.5195313-4.5097656 0-2.4916992 2.0185547-4.5102539 4.5-4.5102539 2.5058594 0 4.5292969 2.0234375 4.5292969 4.5102539s-2.0234375 4.5097656-4.5097656 4.5097656zm0-8.0200195c-1.9492188 0-3.5195313 1.5703125-3.5195313 3.5 0 1.9453125 1.5742188 3.5200195 3.5097656 3.5200195 1.9453125 0 3.5195313-1.574707 3.5195313-3.5097656 0-1.9355469-1.5742188-3.5102539-3.5097656-3.5102539z" fill="#f83908"/></g></g><g><g><path d="m17.5532227 11.0717773c-.2763672 0-.5-.2236328-.5-.5v-2.8984375c0-.2763672.2236328-.5.5-.5s.5.2236328.5.5v2.8984375c0 .2763672-.2236329.5-.5.5z"/></g></g><g><g><path d="m21.9750977 11.0717773c-.2763672 0-.5-.2236328-.5-.5v-2.8984375c0-.2763672.2236328-.5.5-.5s.5.2236328.5.5v2.8984375c0 .2763672-.2236329.5-.5.5z"/></g></g><g><g><path d="m26.3969727 11.0717773c-.2763672 0-.5-.2236328-.5-.5v-2.8984375c0-.2763672.2236328-.5.5-.5s.5.2236328.5.5v2.8984375c0 .2763672-.2236329.5-.5.5z"/></g></g><g><g><path d="m30.8188477 11.0717773c-.2763805 0-.5-.2236328-.5-.5v-2.8984375c0-.2763672.2236195-.5.5-.5.2763672 0 .5.2236328.5.5v2.8984375c0 .2763672-.2236329.5-.5.5z"/></g></g><g><g><path d="m35.2407227 11.0717773c-.2763672 0-.5-.2236328-.5-.5v-2.8984375c0-.2763672.2236328-.5.5-.5s.5.2236328.5.5v2.8984375c0 .2763672-.2236329.5-.5.5z"/></g></g></g></svg>