<svg id="Layer_1" enable-background="new 0 0 53 53" viewBox="0 0 53 53" xmlns="http://www.w3.org/2000/svg"><g><g><path d="m39.8171577 48.9564972h-19.467041c-.276001 0-.5.2229919-.5.5 0 .276001.223999.5.5.5h19.467041c1.032959 0 1.8730469-.8399963 1.8730469-1.8730164v-9.9229736l4.2329102-.0610046c1.3150635-.0180054 2.3770752-1.1010132 2.3660889-2.4190063l-.0330811-1.9609985c-.0059814-.6329956-.2609863-1.2260132-.7159424-1.6719971-.460083-.4490051-1.0280762-.6990051-1.7509766-.6800232l-4.098999.0550232v-19.110016c0-.868988-.3380127-1.6860046-.9500732-2.302002l-5.9780274-6.0050048c-.6079102-.6109924-1.4509277-.9619751-2.3129883-.9619751h-12.7089843c-.276001 0-.5.223999-.5.5 0 .2769775.223999.5.5.5h12.7089844c.2349854 0 .4650879.0479736.6879883.1199951v6.9339905c0 .2770081.2230225.5.5.5h6.9281006c.0759277.2290039.125.4670105.125.7149963v19.1239929l-3.9490967.053009c-.3369141.0039978-.6519775.1390076-.8879395.381012-.2349854.2420044-.3620605.5610046-.3570557.8999939l.0010986.0809937-2.8310547.0460205c-.0820313-.4060059-.177002-.7980042-.3039551-1.1660156-.4980469-1.5620117-1.4050293-3.0169983-2.625-4.2089844-.9520264-.9230042-2.0540771-1.6490173-3.2730713-2.1570129-3.9780273-1.6629944-8.4959717-.7319946-11.4919434 2.3559875-.262085.2420044-.473999.5030212-.6810303.7579956-3.1889648 3.9700012-3.0059814 9.8060303.4189453 13.5670166.1420898.1619873.2950439.3139954.4500732.4689941.4890137.480011.9899902.881012 1.4759521 1.1849976 1.6419678 1.1029968 3.5570068 1.7120056 5.5369873 1.7610168.0910645.0019836.184082.0039978.2780762.0039978.5239258 0 1.0759277-.0429993 1.6499023-.1280212.6881104-.1169739 1.3510742-.2919922 1.9710693-.5189819.4940186-.1799927.8780518-.3519897 1.2299805-.5480042.3869629-.2000122.743042-.4110107 1.0510254-.625.3299561-.223999.6379395-.4649963.9249268-.7250061.2301025-.1919861.4500732-.4029846.697998-.6600037.0860596-.0839844.1680908-.1679993.1710205-.1900024.1900635-.1789856.3500977-.3769836.4940186-.5599976.2359619-.2869873.4550781-.5999756.6850586-.9779968.7049561-1.1139832 1.1610107-2.3439941 1.3740234-3.5939941l2.8588867-.0400085.0010986.0899963c.0119629.6880188.5759277 1.2409973 1.2609863 1.2409973h.0189209l3.8500977-.0549927v9.9089966c.0000003.4810181-.3909909.8730164-.8730466.8730164m-5.6800537-44.1629944 5.7770996 5.8039856h-5.7770996zm-3.6610107 35.2109985c-.2099609.3450012-.4029541.6219788-.612915.8789978-.1220703.1539917-.2509766.315979-.4689941.5359802-.0330811.0480042-.0760498.085022-.177002.1860046-.1860352.1929932-.3790283.3789978-.5949707.5610046-.2670898.2399902-.5380859.4530029-.8341064.6539917-.2769775.1930237-.5959473.381012-.9580078.5690002-.3179932.177002-.657959.3280029-1.1009521.4900208-.5639648.2059937-1.1679688.3659973-1.7850342.4700012-.6079102.0899963-1.1959229.1299744-1.7438965.1119995-1.7910156-.0440063-3.5220947-.5940247-5.0200195-1.6000061-.4379883-.2749939-.8820801-.631012-1.3179932-1.0570068-.137085-.1369934-.2730713-.2730103-.4060059-.4240112-3.1030273-3.4079895-3.269043-8.6849976-.3880615-12.2729797.18396-.2250061.3720703-.4570007.6030273-.6700134 1.8280029-1.8849792 4.2669678-2.8849792 6.7609863-2.8849792 1.2249756 0 2.4620361.2409973 3.6459961.7359924 1.1040039.4599915 2.1009521 1.1159973 2.9620361 1.9509888 1.1009521 1.0769958 1.9210205 2.3890076 2.3729248 3.8070068.1710205.4960022.2930908 1.0169983.3861084 1.6700134l.0159912.1169739c.0279541.1800232.0299072.3710022.0439453.5580139.0290527.4819946.0290527.9670105-.0090332 1.45401-.0059814.0699768-.0029297.1369934-.0109863.2070007-.0019531.0189819-.026001.1669922-.026001.1859741-.1679687 1.3619996-.6159668 2.6270143-1.3370361 3.7660218m5.0670166-4.106018-2.6820068.0379944c.0230713-.2869873.0280762-.5739746.0300293-.8619995 0-.1329956-.0029297-.2619934-.006958-.3929749-.0080566-.2620239-.0169678-.5250244-.0419922-.7860107l2.6710205-.0440063.026001 1.7250061zm1.2821045 1.3309936c-.1010742-.0239868-.2630615-.1129761-.2650146-.2569885l-.0080566-.5849915c0-.0020142.0009766-.0039978.0009766-.006012l-.039917-3.0429993c0-.0130005-.0070801-.0249939-.0080566-.0369873l-.0090332-.5460205c-.0009766-.0709839.0250244-.1369934.0740967-.1879883.0489502-.0490112.1138916-.0769958.1849365-.0780029l9.0959473-.125h.0200195c.3620605 0 .7060547.1400146.9700928.3980103.263916.2590027.4119873.6029968.414917.9679871v.0039978l.0330811 1.9580078c.006958.7659912-.6120605 1.3970032-1.3800049 1.4070129z"/></g><g><path d="m4.7109561 48.089798c0 1.0290222.8369141 1.8660278 1.8649902 1.8660278h9.7340088c.276001 0 .5-.2230225.5-.5 0-.276001-.223999-.5-.5-.5h-9.7340088c-.4770508 0-.8649902-.3880005-.8649902-.8660278v-16.2259827c0-.276001-.2241211-.5-.5-.5-.276001 0-.5.223999-.5.5z"/></g><g><path d="m15.3447456 3.0438995h-8.769043c-1.0280762 0-1.8649902.8370056-1.8649902 1.8660278v22.6729737c0 .276001.223999.5.5.5.2769775 0 .5-.223999.5-.5v-22.6729736c0-.4780273.3879395-.8660278.8649902-.8660278h8.769043c.2758789 0 .5-.223999.5-.5 0-.2759705-.2241211-.5000001-.5-.5000001"/></g><g><path d="m27.3134956 7.6688995h-17.0620117c-.276001 0-.5.2240295-.5.5 0 .276001.223999.5.5.5h17.0620117c.2758789 0 .5-.223999.5-.5 0-.2759704-.2241211-.5-.5-.5"/></g><g><path d="m27.8134956 12.1688995c0-.2759705-.2241211-.5-.5-.5h-17.0620117c-.276001 0-.5.2240295-.5.5 0 .276001.223999.5.5.5h17.0620117c.2758789 0 .5-.223999.5-.5"/></g><g><path d="m25.3134956 15.6688995h-15.0620117c-.276001 0-.5.2240295-.5.5 0 .276001.223999.5.5.5h15.0620117c.2758789 0 .5-.223999.5-.5 0-.2759704-.2241211-.5-.5-.5"/></g><g><path d="m25.3134956 19.6688995h-15.0620117c-.276001 0-.5.2240295-.5.5 0 .276001.223999.5.5.5h15.0620117c.2758789 0 .5-.223999.5-.5 0-.2759704-.2241211-.5-.5-.5"/></g><g><path d="m36.6339302 22.8694c.276001 0 .5-.2230225.5-.5v-7.1490173c0-.276001-.223999-.5-.5-.5h-6.0950928c-.276001 0-.5.223999-.5.5v7.1490173c0 .2769775.223999.5.5.5zm-5.5950928-7.1490173h5.0949707v6.1489868h-5.0949707z"/></g><g><path d="m22.1723824 45.4617767c.0919189.0020142.1849365.0039978.2789307.0039978.5240479 0 1.0760498-.0429993 1.6500244-.1279907.6879883-.1170044 1.3509521-.2919922 1.9709473-.5189819.4940186-.1809998.8780518-.3520203 1.2290039-.5490112.3880615-.1990051.7440186-.4100037 1.052002-.625.3300781-.2229919.6380615-.4649963.9250488-.723999.2290039-.1929932.4499512-.4030151.697998-.6600037.0859375-.0849915.1679688-.1690063.2369385-.2659912.0870361-.1260071.1140137-.2850037.0690918-.4320068-.8730469-2.8909912-3.0250244-5.026001-5.6560059-5.79599 1.0169678-.6970215 1.6870117-1.8659973 1.6870117-3.1900024 0-2.132019-1.7351074-3.8670044-3.868042-3.8670044-2.1330566 0-3.8670654 1.7349854-3.8670654 3.8670044 0 1.3240051.6700439 2.492981 1.6870117 3.190979-2.6339111.7720032-4.7869873 2.9100037-5.657959 5.8050232-.0500488.164978-.0109863.3439941.1030273.473999.1419678.1619873.2949219.3139954.4499512.4679871.4890137.480011.9899902.882019 1.4749756 1.1849976 1.6430664 1.1040037 3.5581054 1.7130125 5.5371094 1.7619932m-2.5941163-12.8849792c0-1.5809937 1.2860107-2.8670044 2.8670654-2.8670044s2.868042 1.2860107 2.868042 2.8670044-1.2869873 2.867981-2.868042 2.867981-2.8670654-1.2869874-2.8670654-2.867981m-3.9268798 9.013977c1.0439453-3.0869751 3.7429199-5.1419983 6.7979736-5.1419983 3.0489502 0 5.7449951 2.052002 6.789917 5.1350098-.006958.0069885-.0148926.0140076-.0229492.0220032-.1850586.1929932-.3780518.3789978-.5939941.5599976-.2669678.2409973-.5379639.45401-.8339844.6539917-.2780762.1930237-.5960693.382019-.9580078.5690002-.3189697.178009-.657959.32901-1.1010742.4909973-.5639648.2060242-1.1679688.3650208-1.7849121.4700012-.6080322.0900269-1.1960449.1289978-1.7440186.1119995-1.7910156-.0439758-3.5230713-.5950012-5.0200195-1.5999756-.4379883-.2750244-.8829346-.631012-1.3179932-1.0580139-.0699463-.0700073-.1419678-.1409912-.2109375-.2130127" fill="#f83908"/></g></g></svg>