<svg id="Layer_1" enable-background="new 0 0 53 53" viewBox="0 0 53 53" xmlns="http://www.w3.org/2000/svg"><g><g fill="#f83908"><path d="m31.1593628 11.3877106c-.1790161.210022-.1530151.526001.0569458.7050171l2.6110229 2.2189941c.0949707.0800171.2089844.1190186.3239746.1190186.1350098 0 .269043-.0540161.3670044-.1610107l4.8530273-5.2460022c.1870117-.2019958.1749878-.5190125-.0269775-.7059937-.2040405-.1880188-.5200195-.1750183-.7070313.0279846l-4.5280151 4.8940125-2.2449951-1.9089966c-.211975-.1790162-.5260009-.1520081-.704956.0569763"/><path d="m39.3439941 14.9188995c-.2030029-.1869812-.5200195-.1749878-.7070313.0280151l-4.5269775 4.8940125-2.2449951-1.9090271c-.2120361-.1789856-.5270386-.1519775-.7060547.0570068-.1779785.2109985-.1529541.526001.0570068.7050171l2.6110229 2.2189941c.0949707.0799866.2089844.118988.3250122.118988.1339722 0 .2680054-.0539856.3670044-.1600037l4.8519897-5.2460022c.1879885-.2029722.174988-.5199888-.0269774-.7070006"/><path d="m38.6369629 21.5482941-4.5270386 4.8940125-2.2449951-1.9089966c-.2119751-.178009-.5269775-.1520081-.7059937.0570068-.1779785.2109985-.1530151.526001.0570068.7049866l2.6109619 2.2189941c.0950317.0800171.2090454.1190186.3250122.1190186.1340332 0 .2680054-.0540161.3670044-.1600037l4.8519897-5.2460022c.1880493-.2030029.1750488-.5190125-.0269775-.7070007-.2030028-.1870118-.5200194-.1749878-.7069701.0279846"/></g><path d="m18.3595581 2.8368988h-8.2790527c-.8979492 0-1.6269531.7290039-1.6269531 1.6260071v29.8569946c0 .276001.2229614.5.5.5.276001 0 .5-.223999.5-.5v-29.8569946c0-.3450012.2810059-.6260071.6269531-.6260071h8.2790527c.2759399 0 .5-.223999.5-.5 0-.2759705-.2240601-.5-.5-.5"/><path d="m10.0802612 50.1631012h25.3699951c.276001 0 .5-.223999.5-.5 0-.2759705-.223999-.5-.5-.5h-25.3699951c-.3460083 0-.6270142-.2809753-.6270142-.6259766v-10.2330017c0-.276001-.223999-.5-.5-.5s-.5.223999-.5.5v10.2330017c.0000001.8970032.7299805 1.6259766 1.6270142 1.6259766"/><path d="m39.810791 50.1631012h3.1099854c.8969727 0 1.6259766-.7289734 1.6259766-1.6259766v-44.0740051c0-.8970032-.7290039-1.6260071-1.6259766-1.6260071h-20.6870118c-.2769775 0-.5.2229919-.5.5 0 .276001.2230225.5.5.5h20.6870117c.3449707 0 .6259766.2810059.6259766.6260071v44.0740051c0 .3450012-.2810059.6259766-.6259766.6259766h-3.1099853c-.276001 0-.5.2240295-.5.5 0 .276001.223999.5.5.5"/><path d="m27.0617676 10.8076019h-13.0650025c-.2770386 0-.5.2240295-.5.5 0 .276001.2229614.5.5.5h13.0650024c.2759399 0 .5-.223999.5-.5.0000001-.2759704-.22406-.5-.4999999-.5"/><path d="m13.9963989 18.4091949h13.0649414c.2770386 0 .5-.223999.5-.5 0-.2759705-.2229614-.5-.5-.5h-13.0649414c-.276001 0-.5.2240295-.5.5 0 .276001.223999.5.5.5"/><path d="m13.9963989 25.0106964h13.0649414c.2770386 0 .5-.223999.5-.5 0-.2759705-.2229614-.5-.5-.5h-13.0649414c-.276001 0-.5.2240295-.5.5 0 .276001.223999.5.5.5"/><path d="m39.0041504 30.6123199h-25.0080566c-.276001 0-.5.2240295-.5.5 0 .276001.223999.5.5.5h25.0080566c.2759399 0 .5-.223999.5-.5 0-.2759704-.2240601-.5-.5-.5"/><path d="m39.0041504 37.2138214h-25.0080566c-.276001 0-.5.2240295-.5.5 0 .276001.223999.5.5.5h25.0080566c.2759399 0 .5-.223999.5-.5 0-.2759704-.2240601-.5-.5-.5"/><path d="m39.5041504 44.3154144c0-.2759705-.2240601-.5-.5-.5h-25.0080566c-.276001 0-.5.2240295-.5.5 0 .276001.223999.5.5.5h25.0080566c.2759399 0 .5-.223999.5-.5"/></g></svg>